G75*
%MOIN*%
%OFA0B0*%
%FSLAX25Y25*%
%IPPOS*%
%LPD*%
%AMOC8*
5,1,8,0,0,1.08239X$1,22.5*
%
%ADD10C,0.00000*%
D10*
X0005685Y0001350D02*
X0005685Y0127334D01*
X0060804Y0127334D01*
X0060804Y0001350D01*
X0005685Y0001350D01*
X0027339Y0028909D02*
X0027341Y0029062D01*
X0027347Y0029216D01*
X0027357Y0029369D01*
X0027371Y0029521D01*
X0027389Y0029674D01*
X0027411Y0029825D01*
X0027436Y0029976D01*
X0027466Y0030127D01*
X0027500Y0030277D01*
X0027537Y0030425D01*
X0027578Y0030573D01*
X0027623Y0030719D01*
X0027672Y0030865D01*
X0027725Y0031009D01*
X0027781Y0031151D01*
X0027841Y0031292D01*
X0027905Y0031432D01*
X0027972Y0031570D01*
X0028043Y0031706D01*
X0028118Y0031840D01*
X0028195Y0031972D01*
X0028277Y0032102D01*
X0028361Y0032230D01*
X0028449Y0032356D01*
X0028540Y0032479D01*
X0028634Y0032600D01*
X0028732Y0032718D01*
X0028832Y0032834D01*
X0028936Y0032947D01*
X0029042Y0033058D01*
X0029151Y0033166D01*
X0029263Y0033271D01*
X0029377Y0033372D01*
X0029495Y0033471D01*
X0029614Y0033567D01*
X0029736Y0033660D01*
X0029861Y0033749D01*
X0029988Y0033836D01*
X0030117Y0033918D01*
X0030248Y0033998D01*
X0030381Y0034074D01*
X0030516Y0034147D01*
X0030653Y0034216D01*
X0030792Y0034281D01*
X0030932Y0034343D01*
X0031074Y0034401D01*
X0031217Y0034456D01*
X0031362Y0034507D01*
X0031508Y0034554D01*
X0031655Y0034597D01*
X0031803Y0034636D01*
X0031952Y0034672D01*
X0032102Y0034703D01*
X0032253Y0034731D01*
X0032404Y0034755D01*
X0032557Y0034775D01*
X0032709Y0034791D01*
X0032862Y0034803D01*
X0033015Y0034811D01*
X0033168Y0034815D01*
X0033322Y0034815D01*
X0033475Y0034811D01*
X0033628Y0034803D01*
X0033781Y0034791D01*
X0033933Y0034775D01*
X0034086Y0034755D01*
X0034237Y0034731D01*
X0034388Y0034703D01*
X0034538Y0034672D01*
X0034687Y0034636D01*
X0034835Y0034597D01*
X0034982Y0034554D01*
X0035128Y0034507D01*
X0035273Y0034456D01*
X0035416Y0034401D01*
X0035558Y0034343D01*
X0035698Y0034281D01*
X0035837Y0034216D01*
X0035974Y0034147D01*
X0036109Y0034074D01*
X0036242Y0033998D01*
X0036373Y0033918D01*
X0036502Y0033836D01*
X0036629Y0033749D01*
X0036754Y0033660D01*
X0036876Y0033567D01*
X0036995Y0033471D01*
X0037113Y0033372D01*
X0037227Y0033271D01*
X0037339Y0033166D01*
X0037448Y0033058D01*
X0037554Y0032947D01*
X0037658Y0032834D01*
X0037758Y0032718D01*
X0037856Y0032600D01*
X0037950Y0032479D01*
X0038041Y0032356D01*
X0038129Y0032230D01*
X0038213Y0032102D01*
X0038295Y0031972D01*
X0038372Y0031840D01*
X0038447Y0031706D01*
X0038518Y0031570D01*
X0038585Y0031432D01*
X0038649Y0031292D01*
X0038709Y0031151D01*
X0038765Y0031009D01*
X0038818Y0030865D01*
X0038867Y0030719D01*
X0038912Y0030573D01*
X0038953Y0030425D01*
X0038990Y0030277D01*
X0039024Y0030127D01*
X0039054Y0029976D01*
X0039079Y0029825D01*
X0039101Y0029674D01*
X0039119Y0029521D01*
X0039133Y0029369D01*
X0039143Y0029216D01*
X0039149Y0029062D01*
X0039151Y0028909D01*
X0039149Y0028756D01*
X0039143Y0028602D01*
X0039133Y0028449D01*
X0039119Y0028297D01*
X0039101Y0028144D01*
X0039079Y0027993D01*
X0039054Y0027842D01*
X0039024Y0027691D01*
X0038990Y0027541D01*
X0038953Y0027393D01*
X0038912Y0027245D01*
X0038867Y0027099D01*
X0038818Y0026953D01*
X0038765Y0026809D01*
X0038709Y0026667D01*
X0038649Y0026526D01*
X0038585Y0026386D01*
X0038518Y0026248D01*
X0038447Y0026112D01*
X0038372Y0025978D01*
X0038295Y0025846D01*
X0038213Y0025716D01*
X0038129Y0025588D01*
X0038041Y0025462D01*
X0037950Y0025339D01*
X0037856Y0025218D01*
X0037758Y0025100D01*
X0037658Y0024984D01*
X0037554Y0024871D01*
X0037448Y0024760D01*
X0037339Y0024652D01*
X0037227Y0024547D01*
X0037113Y0024446D01*
X0036995Y0024347D01*
X0036876Y0024251D01*
X0036754Y0024158D01*
X0036629Y0024069D01*
X0036502Y0023982D01*
X0036373Y0023900D01*
X0036242Y0023820D01*
X0036109Y0023744D01*
X0035974Y0023671D01*
X0035837Y0023602D01*
X0035698Y0023537D01*
X0035558Y0023475D01*
X0035416Y0023417D01*
X0035273Y0023362D01*
X0035128Y0023311D01*
X0034982Y0023264D01*
X0034835Y0023221D01*
X0034687Y0023182D01*
X0034538Y0023146D01*
X0034388Y0023115D01*
X0034237Y0023087D01*
X0034086Y0023063D01*
X0033933Y0023043D01*
X0033781Y0023027D01*
X0033628Y0023015D01*
X0033475Y0023007D01*
X0033322Y0023003D01*
X0033168Y0023003D01*
X0033015Y0023007D01*
X0032862Y0023015D01*
X0032709Y0023027D01*
X0032557Y0023043D01*
X0032404Y0023063D01*
X0032253Y0023087D01*
X0032102Y0023115D01*
X0031952Y0023146D01*
X0031803Y0023182D01*
X0031655Y0023221D01*
X0031508Y0023264D01*
X0031362Y0023311D01*
X0031217Y0023362D01*
X0031074Y0023417D01*
X0030932Y0023475D01*
X0030792Y0023537D01*
X0030653Y0023602D01*
X0030516Y0023671D01*
X0030381Y0023744D01*
X0030248Y0023820D01*
X0030117Y0023900D01*
X0029988Y0023982D01*
X0029861Y0024069D01*
X0029736Y0024158D01*
X0029614Y0024251D01*
X0029495Y0024347D01*
X0029377Y0024446D01*
X0029263Y0024547D01*
X0029151Y0024652D01*
X0029042Y0024760D01*
X0028936Y0024871D01*
X0028832Y0024984D01*
X0028732Y0025100D01*
X0028634Y0025218D01*
X0028540Y0025339D01*
X0028449Y0025462D01*
X0028361Y0025588D01*
X0028277Y0025716D01*
X0028195Y0025846D01*
X0028118Y0025978D01*
X0028043Y0026112D01*
X0027972Y0026248D01*
X0027905Y0026386D01*
X0027841Y0026526D01*
X0027781Y0026667D01*
X0027725Y0026809D01*
X0027672Y0026953D01*
X0027623Y0027099D01*
X0027578Y0027245D01*
X0027537Y0027393D01*
X0027500Y0027541D01*
X0027466Y0027691D01*
X0027436Y0027842D01*
X0027411Y0027993D01*
X0027389Y0028144D01*
X0027371Y0028297D01*
X0027357Y0028449D01*
X0027347Y0028602D01*
X0027341Y0028756D01*
X0027339Y0028909D01*
X0027339Y0040720D02*
X0027341Y0040873D01*
X0027347Y0041027D01*
X0027357Y0041180D01*
X0027371Y0041332D01*
X0027389Y0041485D01*
X0027411Y0041636D01*
X0027436Y0041787D01*
X0027466Y0041938D01*
X0027500Y0042088D01*
X0027537Y0042236D01*
X0027578Y0042384D01*
X0027623Y0042530D01*
X0027672Y0042676D01*
X0027725Y0042820D01*
X0027781Y0042962D01*
X0027841Y0043103D01*
X0027905Y0043243D01*
X0027972Y0043381D01*
X0028043Y0043517D01*
X0028118Y0043651D01*
X0028195Y0043783D01*
X0028277Y0043913D01*
X0028361Y0044041D01*
X0028449Y0044167D01*
X0028540Y0044290D01*
X0028634Y0044411D01*
X0028732Y0044529D01*
X0028832Y0044645D01*
X0028936Y0044758D01*
X0029042Y0044869D01*
X0029151Y0044977D01*
X0029263Y0045082D01*
X0029377Y0045183D01*
X0029495Y0045282D01*
X0029614Y0045378D01*
X0029736Y0045471D01*
X0029861Y0045560D01*
X0029988Y0045647D01*
X0030117Y0045729D01*
X0030248Y0045809D01*
X0030381Y0045885D01*
X0030516Y0045958D01*
X0030653Y0046027D01*
X0030792Y0046092D01*
X0030932Y0046154D01*
X0031074Y0046212D01*
X0031217Y0046267D01*
X0031362Y0046318D01*
X0031508Y0046365D01*
X0031655Y0046408D01*
X0031803Y0046447D01*
X0031952Y0046483D01*
X0032102Y0046514D01*
X0032253Y0046542D01*
X0032404Y0046566D01*
X0032557Y0046586D01*
X0032709Y0046602D01*
X0032862Y0046614D01*
X0033015Y0046622D01*
X0033168Y0046626D01*
X0033322Y0046626D01*
X0033475Y0046622D01*
X0033628Y0046614D01*
X0033781Y0046602D01*
X0033933Y0046586D01*
X0034086Y0046566D01*
X0034237Y0046542D01*
X0034388Y0046514D01*
X0034538Y0046483D01*
X0034687Y0046447D01*
X0034835Y0046408D01*
X0034982Y0046365D01*
X0035128Y0046318D01*
X0035273Y0046267D01*
X0035416Y0046212D01*
X0035558Y0046154D01*
X0035698Y0046092D01*
X0035837Y0046027D01*
X0035974Y0045958D01*
X0036109Y0045885D01*
X0036242Y0045809D01*
X0036373Y0045729D01*
X0036502Y0045647D01*
X0036629Y0045560D01*
X0036754Y0045471D01*
X0036876Y0045378D01*
X0036995Y0045282D01*
X0037113Y0045183D01*
X0037227Y0045082D01*
X0037339Y0044977D01*
X0037448Y0044869D01*
X0037554Y0044758D01*
X0037658Y0044645D01*
X0037758Y0044529D01*
X0037856Y0044411D01*
X0037950Y0044290D01*
X0038041Y0044167D01*
X0038129Y0044041D01*
X0038213Y0043913D01*
X0038295Y0043783D01*
X0038372Y0043651D01*
X0038447Y0043517D01*
X0038518Y0043381D01*
X0038585Y0043243D01*
X0038649Y0043103D01*
X0038709Y0042962D01*
X0038765Y0042820D01*
X0038818Y0042676D01*
X0038867Y0042530D01*
X0038912Y0042384D01*
X0038953Y0042236D01*
X0038990Y0042088D01*
X0039024Y0041938D01*
X0039054Y0041787D01*
X0039079Y0041636D01*
X0039101Y0041485D01*
X0039119Y0041332D01*
X0039133Y0041180D01*
X0039143Y0041027D01*
X0039149Y0040873D01*
X0039151Y0040720D01*
X0039149Y0040567D01*
X0039143Y0040413D01*
X0039133Y0040260D01*
X0039119Y0040108D01*
X0039101Y0039955D01*
X0039079Y0039804D01*
X0039054Y0039653D01*
X0039024Y0039502D01*
X0038990Y0039352D01*
X0038953Y0039204D01*
X0038912Y0039056D01*
X0038867Y0038910D01*
X0038818Y0038764D01*
X0038765Y0038620D01*
X0038709Y0038478D01*
X0038649Y0038337D01*
X0038585Y0038197D01*
X0038518Y0038059D01*
X0038447Y0037923D01*
X0038372Y0037789D01*
X0038295Y0037657D01*
X0038213Y0037527D01*
X0038129Y0037399D01*
X0038041Y0037273D01*
X0037950Y0037150D01*
X0037856Y0037029D01*
X0037758Y0036911D01*
X0037658Y0036795D01*
X0037554Y0036682D01*
X0037448Y0036571D01*
X0037339Y0036463D01*
X0037227Y0036358D01*
X0037113Y0036257D01*
X0036995Y0036158D01*
X0036876Y0036062D01*
X0036754Y0035969D01*
X0036629Y0035880D01*
X0036502Y0035793D01*
X0036373Y0035711D01*
X0036242Y0035631D01*
X0036109Y0035555D01*
X0035974Y0035482D01*
X0035837Y0035413D01*
X0035698Y0035348D01*
X0035558Y0035286D01*
X0035416Y0035228D01*
X0035273Y0035173D01*
X0035128Y0035122D01*
X0034982Y0035075D01*
X0034835Y0035032D01*
X0034687Y0034993D01*
X0034538Y0034957D01*
X0034388Y0034926D01*
X0034237Y0034898D01*
X0034086Y0034874D01*
X0033933Y0034854D01*
X0033781Y0034838D01*
X0033628Y0034826D01*
X0033475Y0034818D01*
X0033322Y0034814D01*
X0033168Y0034814D01*
X0033015Y0034818D01*
X0032862Y0034826D01*
X0032709Y0034838D01*
X0032557Y0034854D01*
X0032404Y0034874D01*
X0032253Y0034898D01*
X0032102Y0034926D01*
X0031952Y0034957D01*
X0031803Y0034993D01*
X0031655Y0035032D01*
X0031508Y0035075D01*
X0031362Y0035122D01*
X0031217Y0035173D01*
X0031074Y0035228D01*
X0030932Y0035286D01*
X0030792Y0035348D01*
X0030653Y0035413D01*
X0030516Y0035482D01*
X0030381Y0035555D01*
X0030248Y0035631D01*
X0030117Y0035711D01*
X0029988Y0035793D01*
X0029861Y0035880D01*
X0029736Y0035969D01*
X0029614Y0036062D01*
X0029495Y0036158D01*
X0029377Y0036257D01*
X0029263Y0036358D01*
X0029151Y0036463D01*
X0029042Y0036571D01*
X0028936Y0036682D01*
X0028832Y0036795D01*
X0028732Y0036911D01*
X0028634Y0037029D01*
X0028540Y0037150D01*
X0028449Y0037273D01*
X0028361Y0037399D01*
X0028277Y0037527D01*
X0028195Y0037657D01*
X0028118Y0037789D01*
X0028043Y0037923D01*
X0027972Y0038059D01*
X0027905Y0038197D01*
X0027841Y0038337D01*
X0027781Y0038478D01*
X0027725Y0038620D01*
X0027672Y0038764D01*
X0027623Y0038910D01*
X0027578Y0039056D01*
X0027537Y0039204D01*
X0027500Y0039352D01*
X0027466Y0039502D01*
X0027436Y0039653D01*
X0027411Y0039804D01*
X0027389Y0039955D01*
X0027371Y0040108D01*
X0027357Y0040260D01*
X0027347Y0040413D01*
X0027341Y0040567D01*
X0027339Y0040720D01*
M02*
