G75*
%MOIN*%
%OFA0B0*%
%FSLAX25Y25*%
%IPPOS*%
%LPD*%
%AMOC8*
5,1,8,0,0,1.08239X$1,22.5*
%
%ADD10C,0.00000*%
%ADD11C,0.00300*%
%ADD12C,0.00500*%
%ADD13C,0.00600*%
%ADD14R,0.01969X0.02559*%
%ADD15C,0.00010*%
D10*
X0005685Y0001350D02*
X0005685Y0127334D01*
X0060804Y0127334D01*
X0060804Y0001350D01*
X0005685Y0001350D01*
X0027339Y0028909D02*
X0027341Y0029062D01*
X0027347Y0029216D01*
X0027357Y0029369D01*
X0027371Y0029521D01*
X0027389Y0029674D01*
X0027411Y0029825D01*
X0027436Y0029976D01*
X0027466Y0030127D01*
X0027500Y0030277D01*
X0027537Y0030425D01*
X0027578Y0030573D01*
X0027623Y0030719D01*
X0027672Y0030865D01*
X0027725Y0031009D01*
X0027781Y0031151D01*
X0027841Y0031292D01*
X0027905Y0031432D01*
X0027972Y0031570D01*
X0028043Y0031706D01*
X0028118Y0031840D01*
X0028195Y0031972D01*
X0028277Y0032102D01*
X0028361Y0032230D01*
X0028449Y0032356D01*
X0028540Y0032479D01*
X0028634Y0032600D01*
X0028732Y0032718D01*
X0028832Y0032834D01*
X0028936Y0032947D01*
X0029042Y0033058D01*
X0029151Y0033166D01*
X0029263Y0033271D01*
X0029377Y0033372D01*
X0029495Y0033471D01*
X0029614Y0033567D01*
X0029736Y0033660D01*
X0029861Y0033749D01*
X0029988Y0033836D01*
X0030117Y0033918D01*
X0030248Y0033998D01*
X0030381Y0034074D01*
X0030516Y0034147D01*
X0030653Y0034216D01*
X0030792Y0034281D01*
X0030932Y0034343D01*
X0031074Y0034401D01*
X0031217Y0034456D01*
X0031362Y0034507D01*
X0031508Y0034554D01*
X0031655Y0034597D01*
X0031803Y0034636D01*
X0031952Y0034672D01*
X0032102Y0034703D01*
X0032253Y0034731D01*
X0032404Y0034755D01*
X0032557Y0034775D01*
X0032709Y0034791D01*
X0032862Y0034803D01*
X0033015Y0034811D01*
X0033168Y0034815D01*
X0033322Y0034815D01*
X0033475Y0034811D01*
X0033628Y0034803D01*
X0033781Y0034791D01*
X0033933Y0034775D01*
X0034086Y0034755D01*
X0034237Y0034731D01*
X0034388Y0034703D01*
X0034538Y0034672D01*
X0034687Y0034636D01*
X0034835Y0034597D01*
X0034982Y0034554D01*
X0035128Y0034507D01*
X0035273Y0034456D01*
X0035416Y0034401D01*
X0035558Y0034343D01*
X0035698Y0034281D01*
X0035837Y0034216D01*
X0035974Y0034147D01*
X0036109Y0034074D01*
X0036242Y0033998D01*
X0036373Y0033918D01*
X0036502Y0033836D01*
X0036629Y0033749D01*
X0036754Y0033660D01*
X0036876Y0033567D01*
X0036995Y0033471D01*
X0037113Y0033372D01*
X0037227Y0033271D01*
X0037339Y0033166D01*
X0037448Y0033058D01*
X0037554Y0032947D01*
X0037658Y0032834D01*
X0037758Y0032718D01*
X0037856Y0032600D01*
X0037950Y0032479D01*
X0038041Y0032356D01*
X0038129Y0032230D01*
X0038213Y0032102D01*
X0038295Y0031972D01*
X0038372Y0031840D01*
X0038447Y0031706D01*
X0038518Y0031570D01*
X0038585Y0031432D01*
X0038649Y0031292D01*
X0038709Y0031151D01*
X0038765Y0031009D01*
X0038818Y0030865D01*
X0038867Y0030719D01*
X0038912Y0030573D01*
X0038953Y0030425D01*
X0038990Y0030277D01*
X0039024Y0030127D01*
X0039054Y0029976D01*
X0039079Y0029825D01*
X0039101Y0029674D01*
X0039119Y0029521D01*
X0039133Y0029369D01*
X0039143Y0029216D01*
X0039149Y0029062D01*
X0039151Y0028909D01*
X0039149Y0028756D01*
X0039143Y0028602D01*
X0039133Y0028449D01*
X0039119Y0028297D01*
X0039101Y0028144D01*
X0039079Y0027993D01*
X0039054Y0027842D01*
X0039024Y0027691D01*
X0038990Y0027541D01*
X0038953Y0027393D01*
X0038912Y0027245D01*
X0038867Y0027099D01*
X0038818Y0026953D01*
X0038765Y0026809D01*
X0038709Y0026667D01*
X0038649Y0026526D01*
X0038585Y0026386D01*
X0038518Y0026248D01*
X0038447Y0026112D01*
X0038372Y0025978D01*
X0038295Y0025846D01*
X0038213Y0025716D01*
X0038129Y0025588D01*
X0038041Y0025462D01*
X0037950Y0025339D01*
X0037856Y0025218D01*
X0037758Y0025100D01*
X0037658Y0024984D01*
X0037554Y0024871D01*
X0037448Y0024760D01*
X0037339Y0024652D01*
X0037227Y0024547D01*
X0037113Y0024446D01*
X0036995Y0024347D01*
X0036876Y0024251D01*
X0036754Y0024158D01*
X0036629Y0024069D01*
X0036502Y0023982D01*
X0036373Y0023900D01*
X0036242Y0023820D01*
X0036109Y0023744D01*
X0035974Y0023671D01*
X0035837Y0023602D01*
X0035698Y0023537D01*
X0035558Y0023475D01*
X0035416Y0023417D01*
X0035273Y0023362D01*
X0035128Y0023311D01*
X0034982Y0023264D01*
X0034835Y0023221D01*
X0034687Y0023182D01*
X0034538Y0023146D01*
X0034388Y0023115D01*
X0034237Y0023087D01*
X0034086Y0023063D01*
X0033933Y0023043D01*
X0033781Y0023027D01*
X0033628Y0023015D01*
X0033475Y0023007D01*
X0033322Y0023003D01*
X0033168Y0023003D01*
X0033015Y0023007D01*
X0032862Y0023015D01*
X0032709Y0023027D01*
X0032557Y0023043D01*
X0032404Y0023063D01*
X0032253Y0023087D01*
X0032102Y0023115D01*
X0031952Y0023146D01*
X0031803Y0023182D01*
X0031655Y0023221D01*
X0031508Y0023264D01*
X0031362Y0023311D01*
X0031217Y0023362D01*
X0031074Y0023417D01*
X0030932Y0023475D01*
X0030792Y0023537D01*
X0030653Y0023602D01*
X0030516Y0023671D01*
X0030381Y0023744D01*
X0030248Y0023820D01*
X0030117Y0023900D01*
X0029988Y0023982D01*
X0029861Y0024069D01*
X0029736Y0024158D01*
X0029614Y0024251D01*
X0029495Y0024347D01*
X0029377Y0024446D01*
X0029263Y0024547D01*
X0029151Y0024652D01*
X0029042Y0024760D01*
X0028936Y0024871D01*
X0028832Y0024984D01*
X0028732Y0025100D01*
X0028634Y0025218D01*
X0028540Y0025339D01*
X0028449Y0025462D01*
X0028361Y0025588D01*
X0028277Y0025716D01*
X0028195Y0025846D01*
X0028118Y0025978D01*
X0028043Y0026112D01*
X0027972Y0026248D01*
X0027905Y0026386D01*
X0027841Y0026526D01*
X0027781Y0026667D01*
X0027725Y0026809D01*
X0027672Y0026953D01*
X0027623Y0027099D01*
X0027578Y0027245D01*
X0027537Y0027393D01*
X0027500Y0027541D01*
X0027466Y0027691D01*
X0027436Y0027842D01*
X0027411Y0027993D01*
X0027389Y0028144D01*
X0027371Y0028297D01*
X0027357Y0028449D01*
X0027347Y0028602D01*
X0027341Y0028756D01*
X0027339Y0028909D01*
X0027339Y0040720D02*
X0027341Y0040873D01*
X0027347Y0041027D01*
X0027357Y0041180D01*
X0027371Y0041332D01*
X0027389Y0041485D01*
X0027411Y0041636D01*
X0027436Y0041787D01*
X0027466Y0041938D01*
X0027500Y0042088D01*
X0027537Y0042236D01*
X0027578Y0042384D01*
X0027623Y0042530D01*
X0027672Y0042676D01*
X0027725Y0042820D01*
X0027781Y0042962D01*
X0027841Y0043103D01*
X0027905Y0043243D01*
X0027972Y0043381D01*
X0028043Y0043517D01*
X0028118Y0043651D01*
X0028195Y0043783D01*
X0028277Y0043913D01*
X0028361Y0044041D01*
X0028449Y0044167D01*
X0028540Y0044290D01*
X0028634Y0044411D01*
X0028732Y0044529D01*
X0028832Y0044645D01*
X0028936Y0044758D01*
X0029042Y0044869D01*
X0029151Y0044977D01*
X0029263Y0045082D01*
X0029377Y0045183D01*
X0029495Y0045282D01*
X0029614Y0045378D01*
X0029736Y0045471D01*
X0029861Y0045560D01*
X0029988Y0045647D01*
X0030117Y0045729D01*
X0030248Y0045809D01*
X0030381Y0045885D01*
X0030516Y0045958D01*
X0030653Y0046027D01*
X0030792Y0046092D01*
X0030932Y0046154D01*
X0031074Y0046212D01*
X0031217Y0046267D01*
X0031362Y0046318D01*
X0031508Y0046365D01*
X0031655Y0046408D01*
X0031803Y0046447D01*
X0031952Y0046483D01*
X0032102Y0046514D01*
X0032253Y0046542D01*
X0032404Y0046566D01*
X0032557Y0046586D01*
X0032709Y0046602D01*
X0032862Y0046614D01*
X0033015Y0046622D01*
X0033168Y0046626D01*
X0033322Y0046626D01*
X0033475Y0046622D01*
X0033628Y0046614D01*
X0033781Y0046602D01*
X0033933Y0046586D01*
X0034086Y0046566D01*
X0034237Y0046542D01*
X0034388Y0046514D01*
X0034538Y0046483D01*
X0034687Y0046447D01*
X0034835Y0046408D01*
X0034982Y0046365D01*
X0035128Y0046318D01*
X0035273Y0046267D01*
X0035416Y0046212D01*
X0035558Y0046154D01*
X0035698Y0046092D01*
X0035837Y0046027D01*
X0035974Y0045958D01*
X0036109Y0045885D01*
X0036242Y0045809D01*
X0036373Y0045729D01*
X0036502Y0045647D01*
X0036629Y0045560D01*
X0036754Y0045471D01*
X0036876Y0045378D01*
X0036995Y0045282D01*
X0037113Y0045183D01*
X0037227Y0045082D01*
X0037339Y0044977D01*
X0037448Y0044869D01*
X0037554Y0044758D01*
X0037658Y0044645D01*
X0037758Y0044529D01*
X0037856Y0044411D01*
X0037950Y0044290D01*
X0038041Y0044167D01*
X0038129Y0044041D01*
X0038213Y0043913D01*
X0038295Y0043783D01*
X0038372Y0043651D01*
X0038447Y0043517D01*
X0038518Y0043381D01*
X0038585Y0043243D01*
X0038649Y0043103D01*
X0038709Y0042962D01*
X0038765Y0042820D01*
X0038818Y0042676D01*
X0038867Y0042530D01*
X0038912Y0042384D01*
X0038953Y0042236D01*
X0038990Y0042088D01*
X0039024Y0041938D01*
X0039054Y0041787D01*
X0039079Y0041636D01*
X0039101Y0041485D01*
X0039119Y0041332D01*
X0039133Y0041180D01*
X0039143Y0041027D01*
X0039149Y0040873D01*
X0039151Y0040720D01*
X0039149Y0040567D01*
X0039143Y0040413D01*
X0039133Y0040260D01*
X0039119Y0040108D01*
X0039101Y0039955D01*
X0039079Y0039804D01*
X0039054Y0039653D01*
X0039024Y0039502D01*
X0038990Y0039352D01*
X0038953Y0039204D01*
X0038912Y0039056D01*
X0038867Y0038910D01*
X0038818Y0038764D01*
X0038765Y0038620D01*
X0038709Y0038478D01*
X0038649Y0038337D01*
X0038585Y0038197D01*
X0038518Y0038059D01*
X0038447Y0037923D01*
X0038372Y0037789D01*
X0038295Y0037657D01*
X0038213Y0037527D01*
X0038129Y0037399D01*
X0038041Y0037273D01*
X0037950Y0037150D01*
X0037856Y0037029D01*
X0037758Y0036911D01*
X0037658Y0036795D01*
X0037554Y0036682D01*
X0037448Y0036571D01*
X0037339Y0036463D01*
X0037227Y0036358D01*
X0037113Y0036257D01*
X0036995Y0036158D01*
X0036876Y0036062D01*
X0036754Y0035969D01*
X0036629Y0035880D01*
X0036502Y0035793D01*
X0036373Y0035711D01*
X0036242Y0035631D01*
X0036109Y0035555D01*
X0035974Y0035482D01*
X0035837Y0035413D01*
X0035698Y0035348D01*
X0035558Y0035286D01*
X0035416Y0035228D01*
X0035273Y0035173D01*
X0035128Y0035122D01*
X0034982Y0035075D01*
X0034835Y0035032D01*
X0034687Y0034993D01*
X0034538Y0034957D01*
X0034388Y0034926D01*
X0034237Y0034898D01*
X0034086Y0034874D01*
X0033933Y0034854D01*
X0033781Y0034838D01*
X0033628Y0034826D01*
X0033475Y0034818D01*
X0033322Y0034814D01*
X0033168Y0034814D01*
X0033015Y0034818D01*
X0032862Y0034826D01*
X0032709Y0034838D01*
X0032557Y0034854D01*
X0032404Y0034874D01*
X0032253Y0034898D01*
X0032102Y0034926D01*
X0031952Y0034957D01*
X0031803Y0034993D01*
X0031655Y0035032D01*
X0031508Y0035075D01*
X0031362Y0035122D01*
X0031217Y0035173D01*
X0031074Y0035228D01*
X0030932Y0035286D01*
X0030792Y0035348D01*
X0030653Y0035413D01*
X0030516Y0035482D01*
X0030381Y0035555D01*
X0030248Y0035631D01*
X0030117Y0035711D01*
X0029988Y0035793D01*
X0029861Y0035880D01*
X0029736Y0035969D01*
X0029614Y0036062D01*
X0029495Y0036158D01*
X0029377Y0036257D01*
X0029263Y0036358D01*
X0029151Y0036463D01*
X0029042Y0036571D01*
X0028936Y0036682D01*
X0028832Y0036795D01*
X0028732Y0036911D01*
X0028634Y0037029D01*
X0028540Y0037150D01*
X0028449Y0037273D01*
X0028361Y0037399D01*
X0028277Y0037527D01*
X0028195Y0037657D01*
X0028118Y0037789D01*
X0028043Y0037923D01*
X0027972Y0038059D01*
X0027905Y0038197D01*
X0027841Y0038337D01*
X0027781Y0038478D01*
X0027725Y0038620D01*
X0027672Y0038764D01*
X0027623Y0038910D01*
X0027578Y0039056D01*
X0027537Y0039204D01*
X0027500Y0039352D01*
X0027466Y0039502D01*
X0027436Y0039653D01*
X0027411Y0039804D01*
X0027389Y0039955D01*
X0027371Y0040108D01*
X0027357Y0040260D01*
X0027347Y0040413D01*
X0027341Y0040567D01*
X0027339Y0040720D01*
D11*
X0028453Y0016803D02*
X0027835Y0016186D01*
X0027835Y0013717D01*
X0028453Y0013100D01*
X0029687Y0013100D01*
X0030304Y0013717D01*
X0030304Y0014952D01*
X0029070Y0014952D01*
X0030304Y0016186D02*
X0029687Y0016803D01*
X0028453Y0016803D01*
X0031519Y0016803D02*
X0031519Y0013100D01*
X0033987Y0013100D02*
X0031519Y0016803D01*
X0033987Y0016803D02*
X0033987Y0013100D01*
X0035202Y0013100D02*
X0037053Y0013100D01*
X0037671Y0013717D01*
X0037671Y0016186D01*
X0037053Y0016803D01*
X0035202Y0016803D01*
X0035202Y0013100D01*
X0039535Y0014334D02*
X0040770Y0013100D01*
X0042004Y0014334D01*
X0042004Y0016803D01*
X0043219Y0016186D02*
X0043219Y0013717D01*
X0043836Y0013100D01*
X0045070Y0013100D01*
X0045687Y0013717D01*
X0046902Y0013717D02*
X0046902Y0016186D01*
X0047519Y0016803D01*
X0048753Y0016803D01*
X0049371Y0016186D01*
X0049371Y0013717D02*
X0048753Y0013100D01*
X0047519Y0013100D01*
X0046902Y0013717D01*
X0045687Y0016186D02*
X0045070Y0016803D01*
X0043836Y0016803D01*
X0043219Y0016186D01*
X0039535Y0016803D02*
X0039535Y0014334D01*
X0025387Y0013717D02*
X0025387Y0016186D01*
X0024770Y0016803D01*
X0023536Y0016803D01*
X0022919Y0016186D01*
X0022919Y0013717D01*
X0023536Y0013100D01*
X0024770Y0013100D01*
X0025387Y0013717D01*
X0021704Y0013717D02*
X0021704Y0016186D01*
X0021087Y0016803D01*
X0019235Y0016803D01*
X0019235Y0013100D01*
X0021087Y0013100D01*
X0021704Y0013717D01*
D12*
X0018245Y0012256D02*
X0048245Y0012256D01*
X0048245Y0002256D01*
X0018245Y0002256D01*
X0018245Y0012256D01*
X0023445Y0072921D02*
X0023445Y0077921D01*
X0034445Y0077921D01*
X0034445Y0072921D01*
X0023445Y0072921D01*
X0022160Y0075729D02*
X0019011Y0075729D01*
X0019011Y0080453D01*
X0022160Y0080453D01*
X0022160Y0075729D01*
X0021585Y0077591D02*
X0020585Y0078591D01*
X0019585Y0077591D01*
X0021585Y0077591D01*
X0023445Y0078803D02*
X0023445Y0083803D01*
X0034445Y0083803D01*
X0034445Y0078803D01*
X0023445Y0078803D01*
X0027628Y0102222D02*
X0016628Y0102222D01*
X0016628Y0107222D01*
X0027628Y0107222D01*
X0027628Y0102222D01*
X0038934Y0104299D02*
X0038934Y0109299D01*
X0049934Y0109299D01*
X0049934Y0104299D01*
X0038934Y0104299D01*
X0038905Y0110022D02*
X0038905Y0115022D01*
X0049905Y0115022D01*
X0049905Y0110022D01*
X0038905Y0110022D01*
D13*
X0029031Y0096104D02*
X0029031Y0089723D01*
X0028549Y0089723D01*
X0028922Y0089723D02*
X0017722Y0089723D01*
X0017614Y0089723D02*
X0018096Y0089723D01*
X0017614Y0089723D02*
X0017614Y0096104D01*
X0018096Y0096104D01*
X0017722Y0096104D02*
X0028922Y0096104D01*
X0029031Y0096104D02*
X0028549Y0096104D01*
X0025379Y0096104D02*
X0025006Y0096104D01*
X0025379Y0089723D02*
X0021266Y0089723D01*
X0021266Y0096104D02*
X0021639Y0096104D01*
D14*
X0023322Y0097540D03*
X0019582Y0097540D03*
X0019582Y0088288D03*
X0027063Y0088288D03*
X0027063Y0097540D03*
D15*
X0027936Y0071058D02*
X0026174Y0071058D01*
X0026549Y0070899D01*
X0027103Y0070667D01*
X0027656Y0070434D01*
X0028210Y0070202D01*
X0028764Y0069969D01*
X0029317Y0069737D01*
X0029871Y0069504D01*
X0030425Y0069272D01*
X0030979Y0069039D01*
X0031554Y0068798D01*
X0032128Y0068557D01*
X0032702Y0068315D01*
X0033276Y0068073D01*
X0033849Y0067828D01*
X0034420Y0067579D01*
X0034937Y0067284D01*
X0034444Y0066999D01*
X0033952Y0066714D01*
X0033460Y0066429D01*
X0041440Y0066429D01*
X0041440Y0066421D02*
X0033445Y0066421D01*
X0033430Y0066412D02*
X0041440Y0066412D01*
X0041440Y0066404D02*
X0033416Y0066404D01*
X0033401Y0066395D02*
X0041440Y0066395D01*
X0041440Y0066387D02*
X0033386Y0066387D01*
X0033372Y0066378D02*
X0041440Y0066378D01*
X0041440Y0066370D02*
X0033357Y0066370D01*
X0033342Y0066361D02*
X0041440Y0066361D01*
X0041440Y0066353D02*
X0033328Y0066353D01*
X0033313Y0066344D02*
X0041440Y0066344D01*
X0041440Y0066336D02*
X0033298Y0066336D01*
X0033284Y0066327D02*
X0041440Y0066327D01*
X0041440Y0066319D02*
X0033269Y0066319D01*
X0033254Y0066310D02*
X0041440Y0066310D01*
X0041440Y0066302D02*
X0033240Y0066302D01*
X0033225Y0066293D02*
X0041440Y0066293D01*
X0041440Y0066285D02*
X0033210Y0066285D01*
X0033196Y0066276D02*
X0041440Y0066276D01*
X0041440Y0066268D02*
X0033181Y0066268D01*
X0033166Y0066259D02*
X0041440Y0066259D01*
X0041440Y0066251D02*
X0033151Y0066251D01*
X0033137Y0066242D02*
X0041440Y0066242D01*
X0041440Y0066234D02*
X0033122Y0066234D01*
X0033107Y0066225D02*
X0041440Y0066225D01*
X0041440Y0066233D02*
X0041440Y0066769D01*
X0041441Y0067306D01*
X0034898Y0067306D01*
X0034884Y0067315D02*
X0041441Y0067315D01*
X0041441Y0067323D02*
X0034869Y0067323D01*
X0034854Y0067332D02*
X0041441Y0067332D01*
X0041441Y0067340D02*
X0034839Y0067340D01*
X0034824Y0067349D02*
X0041441Y0067349D01*
X0041441Y0067357D02*
X0034809Y0067357D01*
X0034794Y0067366D02*
X0041441Y0067366D01*
X0041441Y0067374D02*
X0034779Y0067374D01*
X0034764Y0067383D02*
X0041441Y0067383D01*
X0041441Y0067391D02*
X0034749Y0067391D01*
X0034735Y0067400D02*
X0041441Y0067400D01*
X0041441Y0067408D02*
X0034720Y0067408D01*
X0034705Y0067417D02*
X0041441Y0067417D01*
X0041441Y0067425D02*
X0034690Y0067425D01*
X0034675Y0067434D02*
X0041441Y0067434D01*
X0041441Y0067442D02*
X0034660Y0067442D01*
X0034645Y0067451D02*
X0041441Y0067451D01*
X0041441Y0067459D02*
X0034630Y0067459D01*
X0034615Y0067468D02*
X0041441Y0067468D01*
X0041441Y0067477D02*
X0034600Y0067477D01*
X0034586Y0067485D02*
X0041441Y0067485D01*
X0041441Y0067494D02*
X0034571Y0067494D01*
X0034556Y0067502D02*
X0041441Y0067502D01*
X0041441Y0067511D02*
X0034541Y0067511D01*
X0034526Y0067519D02*
X0041441Y0067519D01*
X0041441Y0067528D02*
X0034511Y0067528D01*
X0034496Y0067536D02*
X0041441Y0067536D01*
X0041441Y0067545D02*
X0034481Y0067545D01*
X0034466Y0067553D02*
X0041441Y0067553D01*
X0041441Y0067562D02*
X0034451Y0067562D01*
X0034437Y0067570D02*
X0041441Y0067570D01*
X0041441Y0067579D02*
X0034422Y0067579D01*
X0034402Y0067587D02*
X0041441Y0067587D01*
X0041441Y0067596D02*
X0034383Y0067596D01*
X0034363Y0067604D02*
X0041441Y0067604D01*
X0041441Y0067613D02*
X0034344Y0067613D01*
X0034324Y0067621D02*
X0041441Y0067621D01*
X0041441Y0067630D02*
X0034305Y0067630D01*
X0034285Y0067638D02*
X0041441Y0067638D01*
X0041441Y0067647D02*
X0034266Y0067647D01*
X0034246Y0067655D02*
X0041441Y0067655D01*
X0041441Y0067664D02*
X0034227Y0067664D01*
X0034207Y0067672D02*
X0041441Y0067672D01*
X0041441Y0067681D02*
X0034187Y0067681D01*
X0034168Y0067689D02*
X0041441Y0067689D01*
X0041441Y0067698D02*
X0034148Y0067698D01*
X0034129Y0067706D02*
X0041441Y0067706D01*
X0041441Y0067715D02*
X0034109Y0067715D01*
X0034090Y0067723D02*
X0041441Y0067723D01*
X0041441Y0067732D02*
X0034070Y0067732D01*
X0034051Y0067740D02*
X0041441Y0067740D01*
X0041441Y0067749D02*
X0034031Y0067749D01*
X0034011Y0067757D02*
X0041441Y0067757D01*
X0041441Y0067766D02*
X0033992Y0067766D01*
X0033972Y0067775D02*
X0041441Y0067775D01*
X0041441Y0067783D02*
X0033953Y0067783D01*
X0033933Y0067792D02*
X0041441Y0067792D01*
X0041441Y0067800D02*
X0033914Y0067800D01*
X0033894Y0067809D02*
X0041441Y0067809D01*
X0041441Y0067817D02*
X0033875Y0067817D01*
X0033855Y0067826D02*
X0041441Y0067826D01*
X0041441Y0067834D02*
X0033835Y0067834D01*
X0033815Y0067843D02*
X0041441Y0067843D01*
X0041441Y0067842D02*
X0041442Y0068379D01*
X0032550Y0068379D01*
X0032570Y0068370D02*
X0041442Y0068370D01*
X0041442Y0068362D02*
X0032590Y0068362D01*
X0032611Y0068353D02*
X0041442Y0068353D01*
X0041442Y0068345D02*
X0032631Y0068345D01*
X0032651Y0068336D02*
X0041442Y0068336D01*
X0041442Y0068328D02*
X0032671Y0068328D01*
X0032691Y0068319D02*
X0041442Y0068319D01*
X0041442Y0068311D02*
X0032711Y0068311D01*
X0032732Y0068302D02*
X0041442Y0068302D01*
X0041442Y0068294D02*
X0032752Y0068294D01*
X0032772Y0068285D02*
X0041442Y0068285D01*
X0041442Y0068277D02*
X0032792Y0068277D01*
X0032812Y0068268D02*
X0041442Y0068268D01*
X0041442Y0068260D02*
X0032832Y0068260D01*
X0032853Y0068251D02*
X0041442Y0068251D01*
X0041442Y0068243D02*
X0032873Y0068243D01*
X0032893Y0068234D02*
X0041442Y0068234D01*
X0041442Y0068226D02*
X0032913Y0068226D01*
X0032933Y0068217D02*
X0041442Y0068217D01*
X0041442Y0068209D02*
X0032953Y0068209D01*
X0032974Y0068200D02*
X0041442Y0068200D01*
X0041441Y0068192D02*
X0032994Y0068192D01*
X0033014Y0068183D02*
X0041441Y0068183D01*
X0041441Y0068175D02*
X0033034Y0068175D01*
X0033054Y0068166D02*
X0041441Y0068166D01*
X0041441Y0068158D02*
X0033074Y0068158D01*
X0033095Y0068149D02*
X0041441Y0068149D01*
X0041441Y0068141D02*
X0033115Y0068141D01*
X0033135Y0068132D02*
X0041441Y0068132D01*
X0041441Y0068124D02*
X0033155Y0068124D01*
X0033175Y0068115D02*
X0041441Y0068115D01*
X0041441Y0068107D02*
X0033195Y0068107D01*
X0033216Y0068098D02*
X0041441Y0068098D01*
X0041441Y0068090D02*
X0033236Y0068090D01*
X0033256Y0068081D02*
X0041441Y0068081D01*
X0041441Y0068072D02*
X0033276Y0068072D01*
X0033296Y0068064D02*
X0041441Y0068064D01*
X0041441Y0068055D02*
X0033316Y0068055D01*
X0033336Y0068047D02*
X0041441Y0068047D01*
X0041441Y0068038D02*
X0033356Y0068038D01*
X0033376Y0068030D02*
X0041441Y0068030D01*
X0041441Y0068021D02*
X0033396Y0068021D01*
X0033416Y0068013D02*
X0041441Y0068013D01*
X0041441Y0068004D02*
X0033436Y0068004D01*
X0033456Y0067996D02*
X0041441Y0067996D01*
X0041441Y0067987D02*
X0033476Y0067987D01*
X0033496Y0067979D02*
X0041441Y0067979D01*
X0041441Y0067970D02*
X0033516Y0067970D01*
X0033536Y0067962D02*
X0041441Y0067962D01*
X0041441Y0067953D02*
X0033556Y0067953D01*
X0033576Y0067945D02*
X0041441Y0067945D01*
X0041441Y0067936D02*
X0033596Y0067936D01*
X0033616Y0067928D02*
X0041441Y0067928D01*
X0041441Y0067919D02*
X0033636Y0067919D01*
X0033655Y0067911D02*
X0041441Y0067911D01*
X0041441Y0067902D02*
X0033675Y0067902D01*
X0033695Y0067894D02*
X0041441Y0067894D01*
X0041441Y0067885D02*
X0033715Y0067885D01*
X0033735Y0067877D02*
X0041441Y0067877D01*
X0041441Y0067868D02*
X0033755Y0067868D01*
X0033775Y0067860D02*
X0041441Y0067860D01*
X0041441Y0067851D02*
X0033795Y0067851D01*
X0034327Y0066932D02*
X0041441Y0066932D01*
X0041441Y0066940D02*
X0034342Y0066940D01*
X0034357Y0066949D02*
X0041441Y0066949D01*
X0041441Y0066957D02*
X0034371Y0066957D01*
X0034386Y0066966D02*
X0041441Y0066966D01*
X0041441Y0066974D02*
X0034401Y0066974D01*
X0034415Y0066983D02*
X0041441Y0066983D01*
X0041441Y0066991D02*
X0034430Y0066991D01*
X0034445Y0067000D02*
X0041441Y0067000D01*
X0041441Y0067008D02*
X0034460Y0067008D01*
X0034474Y0067017D02*
X0041441Y0067017D01*
X0041441Y0067025D02*
X0034489Y0067025D01*
X0034504Y0067034D02*
X0041441Y0067034D01*
X0041441Y0067042D02*
X0034518Y0067042D01*
X0034533Y0067051D02*
X0041441Y0067051D01*
X0041441Y0067059D02*
X0034548Y0067059D01*
X0034563Y0067068D02*
X0041441Y0067068D01*
X0041441Y0067076D02*
X0034577Y0067076D01*
X0034592Y0067085D02*
X0041441Y0067085D01*
X0041441Y0067093D02*
X0034607Y0067093D01*
X0034621Y0067102D02*
X0041441Y0067102D01*
X0041441Y0067110D02*
X0034636Y0067110D01*
X0034651Y0067119D02*
X0041441Y0067119D01*
X0041441Y0067127D02*
X0034666Y0067127D01*
X0034680Y0067136D02*
X0041441Y0067136D01*
X0041441Y0067144D02*
X0034695Y0067144D01*
X0034710Y0067153D02*
X0041441Y0067153D01*
X0041441Y0067162D02*
X0034724Y0067162D01*
X0034739Y0067170D02*
X0041441Y0067170D01*
X0041441Y0067179D02*
X0034754Y0067179D01*
X0034769Y0067187D02*
X0041441Y0067187D01*
X0041441Y0067196D02*
X0034783Y0067196D01*
X0034798Y0067204D02*
X0041441Y0067204D01*
X0041441Y0067213D02*
X0034813Y0067213D01*
X0034827Y0067221D02*
X0041441Y0067221D01*
X0041441Y0067230D02*
X0034842Y0067230D01*
X0034857Y0067238D02*
X0041441Y0067238D01*
X0041441Y0067247D02*
X0034872Y0067247D01*
X0034886Y0067255D02*
X0041441Y0067255D01*
X0041441Y0067264D02*
X0034901Y0067264D01*
X0034916Y0067272D02*
X0041441Y0067272D01*
X0041441Y0067281D02*
X0034930Y0067281D01*
X0034928Y0067289D02*
X0041441Y0067289D01*
X0041441Y0067298D02*
X0034913Y0067298D01*
X0034312Y0066923D02*
X0041441Y0066923D01*
X0041441Y0066915D02*
X0034298Y0066915D01*
X0034283Y0066906D02*
X0041441Y0066906D01*
X0041441Y0066898D02*
X0034268Y0066898D01*
X0034254Y0066889D02*
X0041441Y0066889D01*
X0041441Y0066881D02*
X0034239Y0066881D01*
X0034224Y0066872D02*
X0041441Y0066872D01*
X0041441Y0066864D02*
X0034209Y0066864D01*
X0034195Y0066855D02*
X0041441Y0066855D01*
X0041441Y0066847D02*
X0034180Y0066847D01*
X0034165Y0066838D02*
X0041441Y0066838D01*
X0041441Y0066829D02*
X0034151Y0066829D01*
X0034136Y0066821D02*
X0041441Y0066821D01*
X0041441Y0066812D02*
X0034121Y0066812D01*
X0034107Y0066804D02*
X0041441Y0066804D01*
X0041440Y0066795D02*
X0034092Y0066795D01*
X0034077Y0066787D02*
X0041440Y0066787D01*
X0041440Y0066778D02*
X0034062Y0066778D01*
X0034048Y0066770D02*
X0041440Y0066770D01*
X0041440Y0066761D02*
X0034033Y0066761D01*
X0034018Y0066753D02*
X0041440Y0066753D01*
X0041440Y0066744D02*
X0034004Y0066744D01*
X0033989Y0066736D02*
X0041440Y0066736D01*
X0041440Y0066727D02*
X0033974Y0066727D01*
X0033959Y0066719D02*
X0041440Y0066719D01*
X0041440Y0066710D02*
X0033945Y0066710D01*
X0033930Y0066702D02*
X0041440Y0066702D01*
X0041440Y0066693D02*
X0033915Y0066693D01*
X0033901Y0066685D02*
X0041440Y0066685D01*
X0041440Y0066676D02*
X0033886Y0066676D01*
X0033871Y0066668D02*
X0041440Y0066668D01*
X0041440Y0066659D02*
X0033857Y0066659D01*
X0033842Y0066651D02*
X0041440Y0066651D01*
X0041440Y0066642D02*
X0033827Y0066642D01*
X0033812Y0066634D02*
X0041440Y0066634D01*
X0041440Y0066625D02*
X0033798Y0066625D01*
X0033783Y0066617D02*
X0041440Y0066617D01*
X0041440Y0066608D02*
X0033768Y0066608D01*
X0033754Y0066600D02*
X0041440Y0066600D01*
X0041440Y0066591D02*
X0033739Y0066591D01*
X0033724Y0066583D02*
X0041440Y0066583D01*
X0041440Y0066574D02*
X0033710Y0066574D01*
X0033695Y0066566D02*
X0041440Y0066566D01*
X0041440Y0066557D02*
X0033680Y0066557D01*
X0033665Y0066549D02*
X0041440Y0066549D01*
X0041440Y0066540D02*
X0033651Y0066540D01*
X0033636Y0066531D02*
X0041440Y0066531D01*
X0041440Y0066523D02*
X0033621Y0066523D01*
X0033607Y0066514D02*
X0041440Y0066514D01*
X0041440Y0066506D02*
X0033592Y0066506D01*
X0033577Y0066497D02*
X0041440Y0066497D01*
X0041440Y0066489D02*
X0033563Y0066489D01*
X0033548Y0066480D02*
X0041440Y0066480D01*
X0041440Y0066472D02*
X0033533Y0066472D01*
X0033519Y0066463D02*
X0041440Y0066463D01*
X0041440Y0066455D02*
X0033504Y0066455D01*
X0033489Y0066446D02*
X0041440Y0066446D01*
X0041440Y0066438D02*
X0033474Y0066438D01*
X0033460Y0066429D02*
X0032967Y0066144D01*
X0032475Y0065858D01*
X0031984Y0065573D01*
X0031491Y0065287D01*
X0030999Y0065002D01*
X0030507Y0064716D01*
X0030025Y0064437D01*
X0029544Y0064158D01*
X0029062Y0063878D01*
X0028581Y0063599D01*
X0028100Y0063319D01*
X0027619Y0063040D01*
X0027137Y0062761D01*
X0026655Y0062481D01*
X0026174Y0062202D01*
X0026172Y0061666D01*
X0026170Y0061130D01*
X0026169Y0060594D01*
X0026167Y0060058D01*
X0026165Y0059523D01*
X0026164Y0058986D01*
X0026162Y0058451D01*
X0026160Y0057914D01*
X0026158Y0057379D01*
X0037640Y0057379D01*
X0037620Y0057388D02*
X0026158Y0057388D01*
X0026158Y0057396D02*
X0037600Y0057396D01*
X0037579Y0057405D02*
X0026158Y0057405D01*
X0026158Y0057413D02*
X0037559Y0057413D01*
X0037550Y0057417D02*
X0037006Y0057645D01*
X0036462Y0057873D01*
X0035919Y0058102D01*
X0035375Y0058330D01*
X0034287Y0058787D01*
X0033744Y0059016D01*
X0033200Y0059246D01*
X0032658Y0059477D01*
X0033047Y0059762D01*
X0033470Y0060012D01*
X0033961Y0060297D01*
X0034452Y0060581D01*
X0034943Y0060866D01*
X0035434Y0061150D01*
X0035925Y0061434D01*
X0036417Y0061718D01*
X0036907Y0062002D01*
X0026174Y0062002D01*
X0026173Y0061994D02*
X0036892Y0061994D01*
X0036877Y0061985D02*
X0026173Y0061985D01*
X0026173Y0061977D02*
X0036863Y0061977D01*
X0036848Y0061968D02*
X0026173Y0061968D01*
X0026173Y0061960D02*
X0036833Y0061960D01*
X0036819Y0061951D02*
X0026173Y0061951D01*
X0026173Y0061943D02*
X0036804Y0061943D01*
X0036789Y0061934D02*
X0026173Y0061934D01*
X0026173Y0061926D02*
X0036775Y0061926D01*
X0036760Y0061917D02*
X0026173Y0061917D01*
X0026173Y0061909D02*
X0036745Y0061909D01*
X0036730Y0061900D02*
X0026173Y0061900D01*
X0026173Y0061891D02*
X0036716Y0061891D01*
X0036701Y0061883D02*
X0026173Y0061883D01*
X0026173Y0061874D02*
X0036686Y0061874D01*
X0036672Y0061866D02*
X0026173Y0061866D01*
X0026173Y0061857D02*
X0036657Y0061857D01*
X0036642Y0061849D02*
X0026173Y0061849D01*
X0026173Y0061840D02*
X0036628Y0061840D01*
X0036613Y0061832D02*
X0026173Y0061832D01*
X0026173Y0061823D02*
X0036598Y0061823D01*
X0036584Y0061815D02*
X0026173Y0061815D01*
X0026173Y0061806D02*
X0036569Y0061806D01*
X0036554Y0061798D02*
X0026173Y0061798D01*
X0026173Y0061789D02*
X0036540Y0061789D01*
X0036525Y0061781D02*
X0026173Y0061781D01*
X0026173Y0061772D02*
X0036510Y0061772D01*
X0036495Y0061764D02*
X0026173Y0061764D01*
X0026173Y0061755D02*
X0036481Y0061755D01*
X0036466Y0061747D02*
X0026173Y0061747D01*
X0026173Y0061738D02*
X0036451Y0061738D01*
X0036437Y0061730D02*
X0026173Y0061730D01*
X0026173Y0061721D02*
X0036422Y0061721D01*
X0036407Y0061713D02*
X0026173Y0061713D01*
X0026172Y0061704D02*
X0036393Y0061704D01*
X0036378Y0061696D02*
X0026172Y0061696D01*
X0026172Y0061687D02*
X0036363Y0061687D01*
X0036349Y0061679D02*
X0026172Y0061679D01*
X0026172Y0061670D02*
X0036334Y0061670D01*
X0036319Y0061662D02*
X0026172Y0061662D01*
X0026172Y0061653D02*
X0036304Y0061653D01*
X0036290Y0061645D02*
X0026172Y0061645D01*
X0026172Y0061636D02*
X0036275Y0061636D01*
X0036260Y0061628D02*
X0026172Y0061628D01*
X0026172Y0061619D02*
X0036246Y0061619D01*
X0036231Y0061611D02*
X0026172Y0061611D01*
X0026172Y0061602D02*
X0036216Y0061602D01*
X0036201Y0061594D02*
X0026172Y0061594D01*
X0026172Y0061585D02*
X0036187Y0061585D01*
X0036172Y0061576D02*
X0026172Y0061576D01*
X0026172Y0061568D02*
X0036157Y0061568D01*
X0036143Y0061559D02*
X0026172Y0061559D01*
X0026172Y0061551D02*
X0036128Y0061551D01*
X0036113Y0061542D02*
X0026172Y0061542D01*
X0026172Y0061534D02*
X0036098Y0061534D01*
X0036084Y0061525D02*
X0026172Y0061525D01*
X0026172Y0061517D02*
X0036069Y0061517D01*
X0036054Y0061508D02*
X0026172Y0061508D01*
X0026172Y0061500D02*
X0036040Y0061500D01*
X0036025Y0061491D02*
X0026172Y0061491D01*
X0026172Y0061483D02*
X0036010Y0061483D01*
X0035996Y0061474D02*
X0026172Y0061474D01*
X0026172Y0061466D02*
X0035981Y0061466D01*
X0035966Y0061457D02*
X0026172Y0061457D01*
X0026172Y0061449D02*
X0035951Y0061449D01*
X0035937Y0061440D02*
X0026172Y0061440D01*
X0026172Y0061432D02*
X0035922Y0061432D01*
X0035907Y0061423D02*
X0026172Y0061423D01*
X0026171Y0061415D02*
X0035893Y0061415D01*
X0035878Y0061406D02*
X0026171Y0061406D01*
X0026171Y0061398D02*
X0035863Y0061398D01*
X0035848Y0061389D02*
X0026171Y0061389D01*
X0026171Y0061381D02*
X0035834Y0061381D01*
X0035819Y0061372D02*
X0026171Y0061372D01*
X0026171Y0061364D02*
X0035804Y0061364D01*
X0035789Y0061355D02*
X0026171Y0061355D01*
X0026171Y0061347D02*
X0035775Y0061347D01*
X0035760Y0061338D02*
X0026171Y0061338D01*
X0026171Y0061330D02*
X0035745Y0061330D01*
X0035730Y0061321D02*
X0026171Y0061321D01*
X0026171Y0061313D02*
X0035716Y0061313D01*
X0035701Y0061304D02*
X0026171Y0061304D01*
X0026171Y0061296D02*
X0035686Y0061296D01*
X0035671Y0061287D02*
X0026171Y0061287D01*
X0026171Y0061278D02*
X0035657Y0061278D01*
X0035642Y0061270D02*
X0026171Y0061270D01*
X0026171Y0061261D02*
X0035627Y0061261D01*
X0035612Y0061253D02*
X0026171Y0061253D01*
X0026171Y0061244D02*
X0035598Y0061244D01*
X0035583Y0061236D02*
X0026171Y0061236D01*
X0026171Y0061227D02*
X0035568Y0061227D01*
X0035553Y0061219D02*
X0026171Y0061219D01*
X0026171Y0061210D02*
X0035539Y0061210D01*
X0035524Y0061202D02*
X0026171Y0061202D01*
X0026171Y0061193D02*
X0035509Y0061193D01*
X0035495Y0061185D02*
X0026171Y0061185D01*
X0026171Y0061176D02*
X0035480Y0061176D01*
X0035465Y0061168D02*
X0026171Y0061168D01*
X0026171Y0061159D02*
X0035450Y0061159D01*
X0035436Y0061151D02*
X0026171Y0061151D01*
X0026171Y0061142D02*
X0035421Y0061142D01*
X0035406Y0061134D02*
X0026170Y0061134D01*
X0026170Y0061125D02*
X0035391Y0061125D01*
X0035377Y0061117D02*
X0026170Y0061117D01*
X0026170Y0061108D02*
X0035362Y0061108D01*
X0035347Y0061100D02*
X0026170Y0061100D01*
X0026170Y0061091D02*
X0035333Y0061091D01*
X0035318Y0061083D02*
X0026170Y0061083D01*
X0026170Y0061074D02*
X0035303Y0061074D01*
X0035288Y0061066D02*
X0026170Y0061066D01*
X0026170Y0061057D02*
X0035274Y0061057D01*
X0035259Y0061049D02*
X0026170Y0061049D01*
X0026170Y0061040D02*
X0035244Y0061040D01*
X0035230Y0061032D02*
X0026170Y0061032D01*
X0026170Y0061023D02*
X0035215Y0061023D01*
X0035200Y0061015D02*
X0026170Y0061015D01*
X0026170Y0061006D02*
X0035186Y0061006D01*
X0035171Y0060998D02*
X0026170Y0060998D01*
X0026170Y0060989D02*
X0035156Y0060989D01*
X0035141Y0060981D02*
X0026170Y0060981D01*
X0026170Y0060972D02*
X0035127Y0060972D01*
X0035112Y0060963D02*
X0026170Y0060963D01*
X0026170Y0060955D02*
X0035097Y0060955D01*
X0035083Y0060946D02*
X0026170Y0060946D01*
X0026170Y0060938D02*
X0035068Y0060938D01*
X0035053Y0060929D02*
X0026170Y0060929D01*
X0026170Y0060921D02*
X0035038Y0060921D01*
X0035024Y0060912D02*
X0026170Y0060912D01*
X0026170Y0060904D02*
X0035009Y0060904D01*
X0034994Y0060895D02*
X0026170Y0060895D01*
X0026170Y0060887D02*
X0034980Y0060887D01*
X0034965Y0060878D02*
X0026170Y0060878D01*
X0026170Y0060870D02*
X0034950Y0060870D01*
X0034936Y0060861D02*
X0026170Y0060861D01*
X0026170Y0060853D02*
X0034921Y0060853D01*
X0034906Y0060844D02*
X0026169Y0060844D01*
X0026169Y0060836D02*
X0034891Y0060836D01*
X0034877Y0060827D02*
X0026169Y0060827D01*
X0026169Y0060819D02*
X0034862Y0060819D01*
X0034847Y0060810D02*
X0026169Y0060810D01*
X0026169Y0060802D02*
X0034833Y0060802D01*
X0034818Y0060793D02*
X0026169Y0060793D01*
X0026169Y0060785D02*
X0034803Y0060785D01*
X0034789Y0060776D02*
X0026169Y0060776D01*
X0026169Y0060768D02*
X0034774Y0060768D01*
X0034759Y0060759D02*
X0026169Y0060759D01*
X0026169Y0060751D02*
X0034745Y0060751D01*
X0034730Y0060742D02*
X0026169Y0060742D01*
X0026169Y0060734D02*
X0034715Y0060734D01*
X0034701Y0060725D02*
X0026169Y0060725D01*
X0026169Y0060717D02*
X0034686Y0060717D01*
X0034671Y0060708D02*
X0026169Y0060708D01*
X0026169Y0060700D02*
X0034656Y0060700D01*
X0034642Y0060691D02*
X0026169Y0060691D01*
X0026169Y0060683D02*
X0034627Y0060683D01*
X0034612Y0060674D02*
X0026169Y0060674D01*
X0026169Y0060666D02*
X0034598Y0060666D01*
X0034583Y0060657D02*
X0026169Y0060657D01*
X0026169Y0060648D02*
X0034568Y0060648D01*
X0034554Y0060640D02*
X0026169Y0060640D01*
X0026169Y0060631D02*
X0034539Y0060631D01*
X0034524Y0060623D02*
X0026169Y0060623D01*
X0026169Y0060614D02*
X0034510Y0060614D01*
X0034495Y0060606D02*
X0026169Y0060606D01*
X0026169Y0060597D02*
X0034480Y0060597D01*
X0034466Y0060589D02*
X0026169Y0060589D01*
X0026169Y0060580D02*
X0034451Y0060580D01*
X0034436Y0060572D02*
X0026169Y0060572D01*
X0026169Y0060563D02*
X0034421Y0060563D01*
X0034407Y0060555D02*
X0026169Y0060555D01*
X0026168Y0060546D02*
X0034392Y0060546D01*
X0034377Y0060538D02*
X0026168Y0060538D01*
X0026168Y0060529D02*
X0034363Y0060529D01*
X0034348Y0060521D02*
X0026168Y0060521D01*
X0026168Y0060512D02*
X0034333Y0060512D01*
X0034318Y0060504D02*
X0026168Y0060504D01*
X0026168Y0060495D02*
X0034304Y0060495D01*
X0034289Y0060487D02*
X0026168Y0060487D01*
X0026168Y0060478D02*
X0034274Y0060478D01*
X0034260Y0060470D02*
X0026168Y0060470D01*
X0026168Y0060461D02*
X0034245Y0060461D01*
X0034230Y0060453D02*
X0026168Y0060453D01*
X0026168Y0060444D02*
X0034215Y0060444D01*
X0034201Y0060436D02*
X0026168Y0060436D01*
X0026168Y0060427D02*
X0034186Y0060427D01*
X0034171Y0060419D02*
X0026168Y0060419D01*
X0026168Y0060410D02*
X0034157Y0060410D01*
X0034142Y0060402D02*
X0026168Y0060402D01*
X0026168Y0060393D02*
X0034127Y0060393D01*
X0034113Y0060385D02*
X0026168Y0060385D01*
X0026168Y0060376D02*
X0034098Y0060376D01*
X0034083Y0060368D02*
X0026168Y0060368D01*
X0026168Y0060359D02*
X0034068Y0060359D01*
X0034054Y0060350D02*
X0026168Y0060350D01*
X0026168Y0060342D02*
X0034039Y0060342D01*
X0034024Y0060333D02*
X0026168Y0060333D01*
X0026168Y0060325D02*
X0034010Y0060325D01*
X0033995Y0060316D02*
X0026168Y0060316D01*
X0026168Y0060308D02*
X0033980Y0060308D01*
X0033965Y0060299D02*
X0026168Y0060299D01*
X0026168Y0060291D02*
X0033951Y0060291D01*
X0033936Y0060282D02*
X0026168Y0060282D01*
X0026168Y0060274D02*
X0033921Y0060274D01*
X0033907Y0060265D02*
X0026168Y0060265D01*
X0026168Y0060257D02*
X0033892Y0060257D01*
X0033877Y0060248D02*
X0026168Y0060248D01*
X0026168Y0060240D02*
X0033863Y0060240D01*
X0033848Y0060231D02*
X0026168Y0060231D01*
X0026168Y0060223D02*
X0033833Y0060223D01*
X0033819Y0060214D02*
X0026168Y0060214D01*
X0026168Y0060206D02*
X0033804Y0060206D01*
X0033789Y0060197D02*
X0026168Y0060197D01*
X0026168Y0060189D02*
X0033775Y0060189D01*
X0033760Y0060180D02*
X0026168Y0060180D01*
X0026168Y0060172D02*
X0033745Y0060172D01*
X0033730Y0060163D02*
X0026168Y0060163D01*
X0026168Y0060155D02*
X0033716Y0060155D01*
X0033701Y0060146D02*
X0026168Y0060146D01*
X0026168Y0060138D02*
X0033686Y0060138D01*
X0033672Y0060129D02*
X0026168Y0060129D01*
X0026167Y0060121D02*
X0033657Y0060121D01*
X0033642Y0060112D02*
X0026167Y0060112D01*
X0026167Y0060104D02*
X0033628Y0060104D01*
X0033613Y0060095D02*
X0026167Y0060095D01*
X0026167Y0060087D02*
X0033598Y0060087D01*
X0033584Y0060078D02*
X0026167Y0060078D01*
X0026167Y0060070D02*
X0033569Y0060070D01*
X0033554Y0060061D02*
X0026167Y0060061D01*
X0026167Y0060053D02*
X0033539Y0060053D01*
X0033525Y0060044D02*
X0026167Y0060044D01*
X0026167Y0060035D02*
X0033510Y0060035D01*
X0033495Y0060027D02*
X0026167Y0060027D01*
X0026167Y0060018D02*
X0033481Y0060018D01*
X0033466Y0060010D02*
X0026167Y0060010D01*
X0026167Y0060001D02*
X0033452Y0060001D01*
X0033437Y0059993D02*
X0026167Y0059993D01*
X0026167Y0059984D02*
X0033423Y0059984D01*
X0033409Y0059976D02*
X0026167Y0059976D01*
X0026167Y0059967D02*
X0033394Y0059967D01*
X0033380Y0059959D02*
X0026167Y0059959D01*
X0026167Y0059950D02*
X0033366Y0059950D01*
X0033351Y0059942D02*
X0026167Y0059942D01*
X0026167Y0059933D02*
X0033337Y0059933D01*
X0033322Y0059925D02*
X0026167Y0059925D01*
X0026167Y0059916D02*
X0033308Y0059916D01*
X0033294Y0059908D02*
X0026167Y0059908D01*
X0026167Y0059899D02*
X0033279Y0059899D01*
X0033265Y0059891D02*
X0026167Y0059891D01*
X0026167Y0059882D02*
X0033251Y0059882D01*
X0033236Y0059874D02*
X0026167Y0059874D01*
X0026167Y0059865D02*
X0033222Y0059865D01*
X0033207Y0059857D02*
X0026167Y0059857D01*
X0026167Y0059848D02*
X0033193Y0059848D01*
X0033179Y0059840D02*
X0026167Y0059840D01*
X0026167Y0059831D02*
X0033164Y0059831D01*
X0033150Y0059823D02*
X0026167Y0059823D01*
X0026166Y0059814D02*
X0033136Y0059814D01*
X0033121Y0059806D02*
X0026166Y0059806D01*
X0026166Y0059797D02*
X0033107Y0059797D01*
X0033092Y0059789D02*
X0026166Y0059789D01*
X0026166Y0059780D02*
X0033078Y0059780D01*
X0033064Y0059772D02*
X0026166Y0059772D01*
X0026166Y0059763D02*
X0033049Y0059763D01*
X0033037Y0059755D02*
X0026166Y0059755D01*
X0026166Y0059746D02*
X0033026Y0059746D01*
X0033014Y0059737D02*
X0026166Y0059737D01*
X0026166Y0059729D02*
X0033002Y0059729D01*
X0032991Y0059720D02*
X0026166Y0059720D01*
X0026166Y0059712D02*
X0032979Y0059712D01*
X0032968Y0059703D02*
X0026166Y0059703D01*
X0026166Y0059695D02*
X0032956Y0059695D01*
X0032944Y0059686D02*
X0026166Y0059686D01*
X0026166Y0059678D02*
X0032933Y0059678D01*
X0032921Y0059669D02*
X0026166Y0059669D01*
X0026166Y0059661D02*
X0032909Y0059661D01*
X0032898Y0059652D02*
X0026166Y0059652D01*
X0026166Y0059644D02*
X0032886Y0059644D01*
X0032874Y0059635D02*
X0026166Y0059635D01*
X0026166Y0059627D02*
X0032863Y0059627D01*
X0032851Y0059618D02*
X0026166Y0059618D01*
X0026166Y0059610D02*
X0032840Y0059610D01*
X0032828Y0059601D02*
X0026166Y0059601D01*
X0026166Y0059593D02*
X0032816Y0059593D01*
X0032805Y0059584D02*
X0026166Y0059584D01*
X0026166Y0059576D02*
X0032793Y0059576D01*
X0032781Y0059567D02*
X0026166Y0059567D01*
X0026166Y0059559D02*
X0032770Y0059559D01*
X0032758Y0059550D02*
X0026166Y0059550D01*
X0026166Y0059542D02*
X0032747Y0059542D01*
X0032735Y0059533D02*
X0026166Y0059533D01*
X0026165Y0059525D02*
X0032723Y0059525D01*
X0032712Y0059516D02*
X0026165Y0059516D01*
X0026165Y0059508D02*
X0032700Y0059508D01*
X0032688Y0059499D02*
X0026165Y0059499D01*
X0026165Y0059491D02*
X0032677Y0059491D01*
X0032665Y0059482D02*
X0026165Y0059482D01*
X0026165Y0059474D02*
X0032666Y0059474D01*
X0032686Y0059465D02*
X0026165Y0059465D01*
X0026165Y0059457D02*
X0032706Y0059457D01*
X0032726Y0059448D02*
X0026165Y0059448D01*
X0026165Y0059440D02*
X0032746Y0059440D01*
X0032766Y0059431D02*
X0026165Y0059431D01*
X0026165Y0059422D02*
X0032786Y0059422D01*
X0032806Y0059414D02*
X0026165Y0059414D01*
X0026165Y0059405D02*
X0032825Y0059405D01*
X0032845Y0059397D02*
X0026165Y0059397D01*
X0026165Y0059388D02*
X0032865Y0059388D01*
X0032885Y0059380D02*
X0026165Y0059380D01*
X0026165Y0059371D02*
X0032905Y0059371D01*
X0032925Y0059363D02*
X0026165Y0059363D01*
X0026165Y0059354D02*
X0032945Y0059354D01*
X0032965Y0059346D02*
X0026165Y0059346D01*
X0026165Y0059337D02*
X0032985Y0059337D01*
X0033005Y0059329D02*
X0026165Y0059329D01*
X0026165Y0059320D02*
X0033025Y0059320D01*
X0033045Y0059312D02*
X0026165Y0059312D01*
X0026165Y0059303D02*
X0033065Y0059303D01*
X0033085Y0059295D02*
X0026165Y0059295D01*
X0026165Y0059286D02*
X0033105Y0059286D01*
X0033125Y0059278D02*
X0026165Y0059278D01*
X0026165Y0059269D02*
X0033145Y0059269D01*
X0033165Y0059261D02*
X0026165Y0059261D01*
X0026165Y0059252D02*
X0033185Y0059252D01*
X0033205Y0059244D02*
X0026164Y0059244D01*
X0026164Y0059235D02*
X0033225Y0059235D01*
X0033245Y0059227D02*
X0026164Y0059227D01*
X0026164Y0059218D02*
X0033266Y0059218D01*
X0033286Y0059210D02*
X0026164Y0059210D01*
X0026164Y0059201D02*
X0033306Y0059201D01*
X0033326Y0059193D02*
X0026164Y0059193D01*
X0026164Y0059184D02*
X0033346Y0059184D01*
X0033366Y0059176D02*
X0026164Y0059176D01*
X0026164Y0059167D02*
X0033387Y0059167D01*
X0033407Y0059159D02*
X0026164Y0059159D01*
X0026164Y0059150D02*
X0033427Y0059150D01*
X0033447Y0059142D02*
X0026164Y0059142D01*
X0026164Y0059133D02*
X0033467Y0059133D01*
X0033488Y0059125D02*
X0026164Y0059125D01*
X0026164Y0059116D02*
X0033508Y0059116D01*
X0033528Y0059107D02*
X0026164Y0059107D01*
X0026164Y0059099D02*
X0033548Y0059099D01*
X0033568Y0059090D02*
X0026164Y0059090D01*
X0026164Y0059082D02*
X0033589Y0059082D01*
X0033609Y0059073D02*
X0026164Y0059073D01*
X0026164Y0059065D02*
X0033629Y0059065D01*
X0033649Y0059056D02*
X0026164Y0059056D01*
X0026164Y0059048D02*
X0033669Y0059048D01*
X0033689Y0059039D02*
X0026164Y0059039D01*
X0026164Y0059031D02*
X0033710Y0059031D01*
X0033730Y0059022D02*
X0026164Y0059022D01*
X0026164Y0059014D02*
X0033750Y0059014D01*
X0033770Y0059005D02*
X0026164Y0059005D01*
X0026164Y0058997D02*
X0033790Y0058997D01*
X0033811Y0058988D02*
X0026164Y0058988D01*
X0026164Y0058980D02*
X0033831Y0058980D01*
X0033851Y0058971D02*
X0026164Y0058971D01*
X0026164Y0058963D02*
X0033871Y0058963D01*
X0033891Y0058954D02*
X0026163Y0058954D01*
X0026163Y0058946D02*
X0033912Y0058946D01*
X0033932Y0058937D02*
X0026163Y0058937D01*
X0026163Y0058929D02*
X0033952Y0058929D01*
X0033972Y0058920D02*
X0026163Y0058920D01*
X0026163Y0058912D02*
X0033993Y0058912D01*
X0034013Y0058903D02*
X0026163Y0058903D01*
X0026163Y0058895D02*
X0034033Y0058895D01*
X0034053Y0058886D02*
X0026163Y0058886D01*
X0026163Y0058878D02*
X0034073Y0058878D01*
X0034094Y0058869D02*
X0026163Y0058869D01*
X0026163Y0058861D02*
X0034114Y0058861D01*
X0034134Y0058852D02*
X0026163Y0058852D01*
X0026163Y0058844D02*
X0034154Y0058844D01*
X0034174Y0058835D02*
X0026163Y0058835D01*
X0026163Y0058827D02*
X0034195Y0058827D01*
X0034215Y0058818D02*
X0026163Y0058818D01*
X0026163Y0058809D02*
X0034235Y0058809D01*
X0034255Y0058801D02*
X0026163Y0058801D01*
X0026163Y0058792D02*
X0034276Y0058792D01*
X0034296Y0058784D02*
X0026163Y0058784D01*
X0026163Y0058775D02*
X0034316Y0058775D01*
X0034336Y0058767D02*
X0026163Y0058767D01*
X0026163Y0058758D02*
X0034356Y0058758D01*
X0034377Y0058750D02*
X0026163Y0058750D01*
X0026163Y0058741D02*
X0034397Y0058741D01*
X0034417Y0058733D02*
X0026163Y0058733D01*
X0026163Y0058724D02*
X0034437Y0058724D01*
X0034458Y0058716D02*
X0026163Y0058716D01*
X0026163Y0058707D02*
X0034478Y0058707D01*
X0034498Y0058699D02*
X0026163Y0058699D01*
X0026163Y0058690D02*
X0034518Y0058690D01*
X0034539Y0058682D02*
X0026163Y0058682D01*
X0026163Y0058673D02*
X0034559Y0058673D01*
X0034579Y0058665D02*
X0026162Y0058665D01*
X0026162Y0058656D02*
X0034599Y0058656D01*
X0034620Y0058648D02*
X0026162Y0058648D01*
X0026162Y0058639D02*
X0034640Y0058639D01*
X0034660Y0058631D02*
X0026162Y0058631D01*
X0026162Y0058622D02*
X0034680Y0058622D01*
X0034701Y0058614D02*
X0026162Y0058614D01*
X0026162Y0058605D02*
X0034721Y0058605D01*
X0034741Y0058597D02*
X0026162Y0058597D01*
X0026162Y0058588D02*
X0034761Y0058588D01*
X0034781Y0058580D02*
X0026162Y0058580D01*
X0026162Y0058571D02*
X0034802Y0058571D01*
X0034822Y0058563D02*
X0026162Y0058563D01*
X0026162Y0058554D02*
X0034842Y0058554D01*
X0034862Y0058546D02*
X0026162Y0058546D01*
X0026162Y0058537D02*
X0034883Y0058537D01*
X0034903Y0058529D02*
X0026162Y0058529D01*
X0026162Y0058520D02*
X0034923Y0058520D01*
X0034943Y0058512D02*
X0026162Y0058512D01*
X0026162Y0058503D02*
X0034964Y0058503D01*
X0034984Y0058494D02*
X0026162Y0058494D01*
X0026162Y0058486D02*
X0035004Y0058486D01*
X0035024Y0058477D02*
X0026162Y0058477D01*
X0026162Y0058469D02*
X0035045Y0058469D01*
X0035065Y0058460D02*
X0026162Y0058460D01*
X0026162Y0058452D02*
X0035085Y0058452D01*
X0035105Y0058443D02*
X0026162Y0058443D01*
X0026162Y0058435D02*
X0035126Y0058435D01*
X0035146Y0058426D02*
X0026162Y0058426D01*
X0026162Y0058418D02*
X0035166Y0058418D01*
X0035186Y0058409D02*
X0026162Y0058409D01*
X0026162Y0058401D02*
X0035206Y0058401D01*
X0035227Y0058392D02*
X0026162Y0058392D01*
X0026161Y0058384D02*
X0035247Y0058384D01*
X0035267Y0058375D02*
X0026161Y0058375D01*
X0026161Y0058367D02*
X0035287Y0058367D01*
X0035308Y0058358D02*
X0026161Y0058358D01*
X0026161Y0058350D02*
X0035328Y0058350D01*
X0035348Y0058341D02*
X0026161Y0058341D01*
X0026161Y0058333D02*
X0035368Y0058333D01*
X0035389Y0058324D02*
X0026161Y0058324D01*
X0026161Y0058316D02*
X0035409Y0058316D01*
X0035429Y0058307D02*
X0026161Y0058307D01*
X0026161Y0058299D02*
X0035450Y0058299D01*
X0035470Y0058290D02*
X0026161Y0058290D01*
X0026161Y0058282D02*
X0035490Y0058282D01*
X0035510Y0058273D02*
X0026161Y0058273D01*
X0026161Y0058265D02*
X0035531Y0058265D01*
X0035551Y0058256D02*
X0026161Y0058256D01*
X0026161Y0058248D02*
X0035571Y0058248D01*
X0035592Y0058239D02*
X0026161Y0058239D01*
X0026161Y0058231D02*
X0035612Y0058231D01*
X0035632Y0058222D02*
X0026161Y0058222D01*
X0026161Y0058214D02*
X0035652Y0058214D01*
X0035673Y0058205D02*
X0026161Y0058205D01*
X0026161Y0058197D02*
X0035693Y0058197D01*
X0035713Y0058188D02*
X0026161Y0058188D01*
X0026161Y0058179D02*
X0035734Y0058179D01*
X0035754Y0058171D02*
X0026161Y0058171D01*
X0026161Y0058162D02*
X0035774Y0058162D01*
X0035794Y0058154D02*
X0026161Y0058154D01*
X0026161Y0058145D02*
X0035815Y0058145D01*
X0035835Y0058137D02*
X0026161Y0058137D01*
X0026161Y0058128D02*
X0035855Y0058128D01*
X0035876Y0058120D02*
X0026161Y0058120D01*
X0026161Y0058111D02*
X0035896Y0058111D01*
X0035916Y0058103D02*
X0026161Y0058103D01*
X0026160Y0058094D02*
X0035936Y0058094D01*
X0035957Y0058086D02*
X0026160Y0058086D01*
X0026160Y0058077D02*
X0035977Y0058077D01*
X0035997Y0058069D02*
X0026160Y0058069D01*
X0026160Y0058060D02*
X0036017Y0058060D01*
X0036038Y0058052D02*
X0026160Y0058052D01*
X0026160Y0058043D02*
X0036058Y0058043D01*
X0036078Y0058035D02*
X0026160Y0058035D01*
X0026160Y0058026D02*
X0036098Y0058026D01*
X0036119Y0058018D02*
X0026160Y0058018D01*
X0026160Y0058009D02*
X0036139Y0058009D01*
X0036159Y0058001D02*
X0026160Y0058001D01*
X0026160Y0057992D02*
X0036179Y0057992D01*
X0036200Y0057984D02*
X0026160Y0057984D01*
X0026160Y0057975D02*
X0036220Y0057975D01*
X0036240Y0057967D02*
X0026160Y0057967D01*
X0026160Y0057958D02*
X0036260Y0057958D01*
X0036281Y0057950D02*
X0026160Y0057950D01*
X0026160Y0057941D02*
X0036301Y0057941D01*
X0036321Y0057933D02*
X0026160Y0057933D01*
X0026160Y0057924D02*
X0036341Y0057924D01*
X0036362Y0057916D02*
X0026160Y0057916D01*
X0026160Y0057907D02*
X0036382Y0057907D01*
X0036402Y0057899D02*
X0026160Y0057899D01*
X0026160Y0057890D02*
X0036422Y0057890D01*
X0036442Y0057881D02*
X0026160Y0057881D01*
X0026160Y0057873D02*
X0036463Y0057873D01*
X0036483Y0057864D02*
X0026160Y0057864D01*
X0026160Y0057856D02*
X0036503Y0057856D01*
X0036524Y0057847D02*
X0026160Y0057847D01*
X0026160Y0057839D02*
X0036544Y0057839D01*
X0036564Y0057830D02*
X0026160Y0057830D01*
X0026160Y0057822D02*
X0036584Y0057822D01*
X0036605Y0057813D02*
X0026159Y0057813D01*
X0026159Y0057805D02*
X0036625Y0057805D01*
X0036645Y0057796D02*
X0026159Y0057796D01*
X0026159Y0057788D02*
X0036666Y0057788D01*
X0036686Y0057779D02*
X0026159Y0057779D01*
X0026159Y0057771D02*
X0036706Y0057771D01*
X0036727Y0057762D02*
X0026159Y0057762D01*
X0026159Y0057754D02*
X0036747Y0057754D01*
X0036767Y0057745D02*
X0026159Y0057745D01*
X0026159Y0057737D02*
X0036787Y0057737D01*
X0036808Y0057728D02*
X0026159Y0057728D01*
X0026159Y0057720D02*
X0036828Y0057720D01*
X0036848Y0057711D02*
X0026159Y0057711D01*
X0026159Y0057703D02*
X0036869Y0057703D01*
X0036889Y0057694D02*
X0026159Y0057694D01*
X0026159Y0057686D02*
X0036909Y0057686D01*
X0036929Y0057677D02*
X0026159Y0057677D01*
X0026159Y0057669D02*
X0036950Y0057669D01*
X0036970Y0057660D02*
X0026159Y0057660D01*
X0026159Y0057652D02*
X0036990Y0057652D01*
X0037011Y0057643D02*
X0026159Y0057643D01*
X0026159Y0057635D02*
X0037031Y0057635D01*
X0037051Y0057626D02*
X0026159Y0057626D01*
X0026159Y0057618D02*
X0037072Y0057618D01*
X0037092Y0057609D02*
X0026159Y0057609D01*
X0026159Y0057601D02*
X0037112Y0057601D01*
X0037133Y0057592D02*
X0026159Y0057592D01*
X0026159Y0057584D02*
X0037153Y0057584D01*
X0037173Y0057575D02*
X0026159Y0057575D01*
X0026159Y0057566D02*
X0037193Y0057566D01*
X0037214Y0057558D02*
X0026159Y0057558D01*
X0026159Y0057549D02*
X0037234Y0057549D01*
X0037254Y0057541D02*
X0026159Y0057541D01*
X0026159Y0057532D02*
X0037275Y0057532D01*
X0037295Y0057524D02*
X0026158Y0057524D01*
X0026158Y0057515D02*
X0037315Y0057515D01*
X0037336Y0057507D02*
X0026158Y0057507D01*
X0026158Y0057498D02*
X0037356Y0057498D01*
X0037376Y0057490D02*
X0026158Y0057490D01*
X0026158Y0057481D02*
X0037397Y0057481D01*
X0037417Y0057473D02*
X0026158Y0057473D01*
X0026158Y0057464D02*
X0037437Y0057464D01*
X0037458Y0057456D02*
X0026158Y0057456D01*
X0026158Y0057447D02*
X0037478Y0057447D01*
X0037498Y0057439D02*
X0026158Y0057439D01*
X0026158Y0057430D02*
X0037519Y0057430D01*
X0037539Y0057422D02*
X0026158Y0057422D01*
X0026158Y0057379D02*
X0026156Y0056842D01*
X0026155Y0056307D01*
X0026153Y0055771D01*
X0029089Y0055771D01*
X0029677Y0055772D01*
X0033787Y0055772D01*
X0034370Y0055773D01*
X0034953Y0055773D01*
X0035535Y0055773D01*
X0036118Y0055774D01*
X0036700Y0055776D01*
X0037283Y0055777D01*
X0037865Y0055778D01*
X0038448Y0055781D01*
X0039030Y0055783D01*
X0039614Y0055786D01*
X0040196Y0055789D01*
X0040779Y0055795D01*
X0041360Y0055809D01*
X0040817Y0056041D01*
X0040273Y0056271D01*
X0039729Y0056501D01*
X0039184Y0056730D01*
X0038640Y0056959D01*
X0038095Y0057188D01*
X0037550Y0057417D01*
X0037661Y0057371D02*
X0026158Y0057371D01*
X0026158Y0057362D02*
X0037681Y0057362D01*
X0037701Y0057354D02*
X0026158Y0057354D01*
X0026158Y0057345D02*
X0037721Y0057345D01*
X0037742Y0057337D02*
X0026158Y0057337D01*
X0026158Y0057328D02*
X0037762Y0057328D01*
X0037782Y0057320D02*
X0026158Y0057320D01*
X0026158Y0057311D02*
X0037803Y0057311D01*
X0037823Y0057303D02*
X0026158Y0057303D01*
X0026158Y0057294D02*
X0037843Y0057294D01*
X0037863Y0057286D02*
X0026158Y0057286D01*
X0026158Y0057277D02*
X0037884Y0057277D01*
X0037904Y0057269D02*
X0026158Y0057269D01*
X0026158Y0057260D02*
X0037924Y0057260D01*
X0037945Y0057251D02*
X0026158Y0057251D01*
X0026158Y0057243D02*
X0037965Y0057243D01*
X0037985Y0057234D02*
X0026157Y0057234D01*
X0026157Y0057226D02*
X0038005Y0057226D01*
X0038026Y0057217D02*
X0026157Y0057217D01*
X0026157Y0057209D02*
X0038046Y0057209D01*
X0038066Y0057200D02*
X0026157Y0057200D01*
X0026157Y0057192D02*
X0038087Y0057192D01*
X0038107Y0057183D02*
X0026157Y0057183D01*
X0026157Y0057175D02*
X0038127Y0057175D01*
X0038147Y0057166D02*
X0026157Y0057166D01*
X0026157Y0057158D02*
X0038168Y0057158D01*
X0038188Y0057149D02*
X0026157Y0057149D01*
X0026157Y0057141D02*
X0038208Y0057141D01*
X0038228Y0057132D02*
X0026157Y0057132D01*
X0026157Y0057124D02*
X0038249Y0057124D01*
X0038269Y0057115D02*
X0026157Y0057115D01*
X0026157Y0057107D02*
X0038289Y0057107D01*
X0038309Y0057098D02*
X0026157Y0057098D01*
X0026157Y0057090D02*
X0038330Y0057090D01*
X0038350Y0057081D02*
X0026157Y0057081D01*
X0026157Y0057073D02*
X0038370Y0057073D01*
X0038390Y0057064D02*
X0026157Y0057064D01*
X0026157Y0057056D02*
X0038411Y0057056D01*
X0038431Y0057047D02*
X0026157Y0057047D01*
X0026157Y0057039D02*
X0038451Y0057039D01*
X0038472Y0057030D02*
X0026157Y0057030D01*
X0026157Y0057022D02*
X0038492Y0057022D01*
X0038512Y0057013D02*
X0026157Y0057013D01*
X0026157Y0057005D02*
X0038532Y0057005D01*
X0038553Y0056996D02*
X0026157Y0056996D01*
X0026157Y0056988D02*
X0038573Y0056988D01*
X0038593Y0056979D02*
X0026157Y0056979D01*
X0026157Y0056971D02*
X0038613Y0056971D01*
X0038634Y0056962D02*
X0026157Y0056962D01*
X0026156Y0056953D02*
X0038654Y0056953D01*
X0038674Y0056945D02*
X0026156Y0056945D01*
X0026156Y0056936D02*
X0038694Y0056936D01*
X0038714Y0056928D02*
X0026156Y0056928D01*
X0026156Y0056919D02*
X0038735Y0056919D01*
X0038755Y0056911D02*
X0026156Y0056911D01*
X0026156Y0056902D02*
X0038775Y0056902D01*
X0038795Y0056894D02*
X0026156Y0056894D01*
X0026156Y0056885D02*
X0038815Y0056885D01*
X0038836Y0056877D02*
X0026156Y0056877D01*
X0026156Y0056868D02*
X0038856Y0056868D01*
X0038876Y0056860D02*
X0026156Y0056860D01*
X0026156Y0056851D02*
X0038896Y0056851D01*
X0038916Y0056843D02*
X0026156Y0056843D01*
X0026156Y0056834D02*
X0038937Y0056834D01*
X0038957Y0056826D02*
X0026156Y0056826D01*
X0026156Y0056817D02*
X0038977Y0056817D01*
X0038997Y0056809D02*
X0026156Y0056809D01*
X0026156Y0056800D02*
X0039018Y0056800D01*
X0039038Y0056792D02*
X0026156Y0056792D01*
X0026156Y0056783D02*
X0039058Y0056783D01*
X0039078Y0056775D02*
X0026156Y0056775D01*
X0026156Y0056766D02*
X0039098Y0056766D01*
X0039119Y0056758D02*
X0026156Y0056758D01*
X0026156Y0056749D02*
X0039139Y0056749D01*
X0039159Y0056741D02*
X0026156Y0056741D01*
X0026156Y0056732D02*
X0039179Y0056732D01*
X0039199Y0056724D02*
X0026156Y0056724D01*
X0026156Y0056715D02*
X0039220Y0056715D01*
X0039240Y0056707D02*
X0026156Y0056707D01*
X0026156Y0056698D02*
X0039260Y0056698D01*
X0039280Y0056690D02*
X0026156Y0056690D01*
X0026156Y0056681D02*
X0039300Y0056681D01*
X0039321Y0056673D02*
X0026156Y0056673D01*
X0026156Y0056664D02*
X0039341Y0056664D01*
X0039361Y0056656D02*
X0026156Y0056656D01*
X0026156Y0056647D02*
X0039381Y0056647D01*
X0039401Y0056638D02*
X0026156Y0056638D01*
X0026156Y0056630D02*
X0039422Y0056630D01*
X0039442Y0056621D02*
X0026156Y0056621D01*
X0026156Y0056613D02*
X0039462Y0056613D01*
X0039482Y0056604D02*
X0026156Y0056604D01*
X0026156Y0056596D02*
X0039502Y0056596D01*
X0039523Y0056587D02*
X0026155Y0056587D01*
X0026155Y0056579D02*
X0039543Y0056579D01*
X0039563Y0056570D02*
X0026155Y0056570D01*
X0026155Y0056562D02*
X0039583Y0056562D01*
X0039603Y0056553D02*
X0026155Y0056553D01*
X0026155Y0056545D02*
X0039624Y0056545D01*
X0039644Y0056536D02*
X0026155Y0056536D01*
X0026155Y0056528D02*
X0039664Y0056528D01*
X0039684Y0056519D02*
X0026155Y0056519D01*
X0026155Y0056511D02*
X0039705Y0056511D01*
X0039725Y0056502D02*
X0026155Y0056502D01*
X0026155Y0056494D02*
X0039745Y0056494D01*
X0039765Y0056485D02*
X0026155Y0056485D01*
X0026155Y0056477D02*
X0039785Y0056477D01*
X0039806Y0056468D02*
X0026155Y0056468D01*
X0026155Y0056460D02*
X0039826Y0056460D01*
X0039846Y0056451D02*
X0026155Y0056451D01*
X0026155Y0056443D02*
X0039866Y0056443D01*
X0039886Y0056434D02*
X0026155Y0056434D01*
X0026155Y0056426D02*
X0039907Y0056426D01*
X0039927Y0056417D02*
X0026155Y0056417D01*
X0026155Y0056409D02*
X0039947Y0056409D01*
X0039967Y0056400D02*
X0026155Y0056400D01*
X0026155Y0056392D02*
X0039987Y0056392D01*
X0040008Y0056383D02*
X0026155Y0056383D01*
X0026155Y0056375D02*
X0040028Y0056375D01*
X0040048Y0056366D02*
X0026155Y0056366D01*
X0026155Y0056358D02*
X0040068Y0056358D01*
X0040088Y0056349D02*
X0026155Y0056349D01*
X0026155Y0056341D02*
X0040109Y0056341D01*
X0040129Y0056332D02*
X0026155Y0056332D01*
X0026155Y0056323D02*
X0040149Y0056323D01*
X0040169Y0056315D02*
X0026155Y0056315D01*
X0026155Y0056306D02*
X0040189Y0056306D01*
X0040210Y0056298D02*
X0026155Y0056298D01*
X0026155Y0056289D02*
X0040230Y0056289D01*
X0040250Y0056281D02*
X0026155Y0056281D01*
X0026155Y0056272D02*
X0040270Y0056272D01*
X0040290Y0056264D02*
X0026155Y0056264D01*
X0026155Y0056255D02*
X0040311Y0056255D01*
X0040331Y0056247D02*
X0026155Y0056247D01*
X0026155Y0056238D02*
X0040351Y0056238D01*
X0040371Y0056230D02*
X0026155Y0056230D01*
X0026155Y0056221D02*
X0040391Y0056221D01*
X0040411Y0056213D02*
X0026155Y0056213D01*
X0026154Y0056204D02*
X0040431Y0056204D01*
X0040451Y0056196D02*
X0026154Y0056196D01*
X0026154Y0056187D02*
X0040472Y0056187D01*
X0040492Y0056179D02*
X0026154Y0056179D01*
X0026154Y0056170D02*
X0040512Y0056170D01*
X0040532Y0056162D02*
X0026154Y0056162D01*
X0026154Y0056153D02*
X0040552Y0056153D01*
X0040572Y0056145D02*
X0026154Y0056145D01*
X0026154Y0056136D02*
X0040592Y0056136D01*
X0040612Y0056128D02*
X0026154Y0056128D01*
X0026154Y0056119D02*
X0040633Y0056119D01*
X0040653Y0056111D02*
X0026154Y0056111D01*
X0026154Y0056102D02*
X0040673Y0056102D01*
X0040693Y0056094D02*
X0026154Y0056094D01*
X0026154Y0056085D02*
X0040713Y0056085D01*
X0040733Y0056077D02*
X0026154Y0056077D01*
X0026154Y0056068D02*
X0040753Y0056068D01*
X0040773Y0056060D02*
X0026154Y0056060D01*
X0026154Y0056051D02*
X0040794Y0056051D01*
X0040814Y0056043D02*
X0026154Y0056043D01*
X0026154Y0056034D02*
X0040834Y0056034D01*
X0040854Y0056025D02*
X0026154Y0056025D01*
X0026154Y0056017D02*
X0040874Y0056017D01*
X0040894Y0056008D02*
X0026154Y0056008D01*
X0026154Y0056000D02*
X0040913Y0056000D01*
X0040933Y0055991D02*
X0026154Y0055991D01*
X0026154Y0055983D02*
X0040953Y0055983D01*
X0040973Y0055974D02*
X0026154Y0055974D01*
X0026154Y0055966D02*
X0040993Y0055966D01*
X0041013Y0055957D02*
X0026154Y0055957D01*
X0026154Y0055949D02*
X0041033Y0055949D01*
X0041053Y0055940D02*
X0026154Y0055940D01*
X0026154Y0055932D02*
X0041073Y0055932D01*
X0041093Y0055923D02*
X0026154Y0055923D01*
X0026153Y0055915D02*
X0041113Y0055915D01*
X0041133Y0055906D02*
X0026153Y0055906D01*
X0026153Y0055898D02*
X0041153Y0055898D01*
X0041173Y0055889D02*
X0026153Y0055889D01*
X0026153Y0055881D02*
X0041193Y0055881D01*
X0041213Y0055872D02*
X0026153Y0055872D01*
X0026153Y0055864D02*
X0041233Y0055864D01*
X0041252Y0055855D02*
X0026153Y0055855D01*
X0026153Y0055847D02*
X0041272Y0055847D01*
X0041292Y0055838D02*
X0026153Y0055838D01*
X0026153Y0055830D02*
X0041312Y0055830D01*
X0041332Y0055821D02*
X0026153Y0055821D01*
X0026153Y0055813D02*
X0041352Y0055813D01*
X0041148Y0055804D02*
X0026153Y0055804D01*
X0026153Y0055796D02*
X0040803Y0055796D01*
X0039844Y0055787D02*
X0026153Y0055787D01*
X0026153Y0055779D02*
X0037974Y0055779D01*
X0036907Y0062002D02*
X0037399Y0062286D01*
X0037890Y0062571D01*
X0038397Y0062864D01*
X0038904Y0063157D01*
X0039411Y0063451D01*
X0039918Y0063744D01*
X0040425Y0064037D01*
X0040932Y0064331D01*
X0041439Y0064624D01*
X0041439Y0065161D01*
X0031273Y0065161D01*
X0031288Y0065169D02*
X0041439Y0065169D01*
X0041439Y0065161D02*
X0041440Y0065697D01*
X0041440Y0066233D01*
X0041440Y0066216D02*
X0033093Y0066216D01*
X0033078Y0066208D02*
X0041440Y0066208D01*
X0041440Y0066199D02*
X0033063Y0066199D01*
X0033049Y0066191D02*
X0041440Y0066191D01*
X0041440Y0066182D02*
X0033034Y0066182D01*
X0033019Y0066174D02*
X0041440Y0066174D01*
X0041440Y0066165D02*
X0033005Y0066165D01*
X0032990Y0066157D02*
X0041440Y0066157D01*
X0041440Y0066148D02*
X0032975Y0066148D01*
X0032961Y0066140D02*
X0041440Y0066140D01*
X0041440Y0066131D02*
X0032946Y0066131D01*
X0032931Y0066123D02*
X0041440Y0066123D01*
X0041440Y0066114D02*
X0032917Y0066114D01*
X0032902Y0066106D02*
X0041440Y0066106D01*
X0041440Y0066097D02*
X0032887Y0066097D01*
X0032873Y0066089D02*
X0041440Y0066089D01*
X0041440Y0066080D02*
X0032858Y0066080D01*
X0032843Y0066072D02*
X0041440Y0066072D01*
X0041440Y0066063D02*
X0032829Y0066063D01*
X0032814Y0066055D02*
X0041440Y0066055D01*
X0041440Y0066046D02*
X0032799Y0066046D01*
X0032785Y0066038D02*
X0041440Y0066038D01*
X0041440Y0066029D02*
X0032770Y0066029D01*
X0032755Y0066021D02*
X0041440Y0066021D01*
X0041440Y0066012D02*
X0032741Y0066012D01*
X0032726Y0066004D02*
X0041440Y0066004D01*
X0041440Y0065995D02*
X0032711Y0065995D01*
X0032697Y0065987D02*
X0041440Y0065987D01*
X0041440Y0065978D02*
X0032682Y0065978D01*
X0032667Y0065970D02*
X0041440Y0065970D01*
X0041440Y0065961D02*
X0032653Y0065961D01*
X0032638Y0065953D02*
X0041440Y0065953D01*
X0041440Y0065944D02*
X0032623Y0065944D01*
X0032609Y0065936D02*
X0041440Y0065936D01*
X0041440Y0065927D02*
X0032594Y0065927D01*
X0032579Y0065919D02*
X0041440Y0065919D01*
X0041440Y0065910D02*
X0032565Y0065910D01*
X0032550Y0065901D02*
X0041440Y0065901D01*
X0041440Y0065893D02*
X0032535Y0065893D01*
X0032521Y0065884D02*
X0041440Y0065884D01*
X0041440Y0065876D02*
X0032506Y0065876D01*
X0032491Y0065867D02*
X0041440Y0065867D01*
X0041440Y0065859D02*
X0032477Y0065859D01*
X0032462Y0065850D02*
X0041440Y0065850D01*
X0041440Y0065842D02*
X0032447Y0065842D01*
X0032433Y0065833D02*
X0041440Y0065833D01*
X0041440Y0065825D02*
X0032418Y0065825D01*
X0032403Y0065816D02*
X0041440Y0065816D01*
X0041440Y0065808D02*
X0032389Y0065808D01*
X0032374Y0065799D02*
X0041440Y0065799D01*
X0041440Y0065791D02*
X0032359Y0065791D01*
X0032345Y0065782D02*
X0041440Y0065782D01*
X0041440Y0065774D02*
X0032330Y0065774D01*
X0032315Y0065765D02*
X0041440Y0065765D01*
X0041440Y0065757D02*
X0032301Y0065757D01*
X0032286Y0065748D02*
X0041440Y0065748D01*
X0041440Y0065740D02*
X0032271Y0065740D01*
X0032256Y0065731D02*
X0041440Y0065731D01*
X0041440Y0065723D02*
X0032242Y0065723D01*
X0032227Y0065714D02*
X0041440Y0065714D01*
X0041440Y0065706D02*
X0032212Y0065706D01*
X0032198Y0065697D02*
X0041440Y0065697D01*
X0041440Y0065689D02*
X0032183Y0065689D01*
X0032168Y0065680D02*
X0041440Y0065680D01*
X0041440Y0065672D02*
X0032154Y0065672D01*
X0032139Y0065663D02*
X0041440Y0065663D01*
X0041440Y0065655D02*
X0032124Y0065655D01*
X0032109Y0065646D02*
X0041440Y0065646D01*
X0041440Y0065638D02*
X0032095Y0065638D01*
X0032080Y0065629D02*
X0041440Y0065629D01*
X0041440Y0065621D02*
X0032065Y0065621D01*
X0032051Y0065612D02*
X0041440Y0065612D01*
X0041440Y0065603D02*
X0032036Y0065603D01*
X0032021Y0065595D02*
X0041440Y0065595D01*
X0041440Y0065586D02*
X0032007Y0065586D01*
X0031992Y0065578D02*
X0041440Y0065578D01*
X0041440Y0065569D02*
X0031977Y0065569D01*
X0031963Y0065561D02*
X0041440Y0065561D01*
X0041440Y0065552D02*
X0031948Y0065552D01*
X0031933Y0065544D02*
X0041440Y0065544D01*
X0041440Y0065535D02*
X0031919Y0065535D01*
X0031904Y0065527D02*
X0041440Y0065527D01*
X0041440Y0065518D02*
X0031889Y0065518D01*
X0031874Y0065510D02*
X0041440Y0065510D01*
X0041440Y0065501D02*
X0031860Y0065501D01*
X0031845Y0065493D02*
X0041440Y0065493D01*
X0041440Y0065484D02*
X0031830Y0065484D01*
X0031816Y0065476D02*
X0041440Y0065476D01*
X0041440Y0065467D02*
X0031801Y0065467D01*
X0031786Y0065459D02*
X0041440Y0065459D01*
X0041440Y0065450D02*
X0031772Y0065450D01*
X0031757Y0065442D02*
X0041440Y0065442D01*
X0041440Y0065433D02*
X0031742Y0065433D01*
X0031728Y0065425D02*
X0041440Y0065425D01*
X0041440Y0065416D02*
X0031713Y0065416D01*
X0031698Y0065408D02*
X0041440Y0065408D01*
X0041439Y0065399D02*
X0031684Y0065399D01*
X0031669Y0065391D02*
X0041439Y0065391D01*
X0041439Y0065382D02*
X0031654Y0065382D01*
X0031640Y0065374D02*
X0041439Y0065374D01*
X0041439Y0065365D02*
X0031625Y0065365D01*
X0031610Y0065357D02*
X0041439Y0065357D01*
X0041439Y0065348D02*
X0031596Y0065348D01*
X0031581Y0065340D02*
X0041439Y0065340D01*
X0041439Y0065331D02*
X0031566Y0065331D01*
X0031552Y0065323D02*
X0041439Y0065323D01*
X0041439Y0065314D02*
X0031537Y0065314D01*
X0031522Y0065306D02*
X0041439Y0065306D01*
X0041439Y0065297D02*
X0031507Y0065297D01*
X0031493Y0065288D02*
X0041439Y0065288D01*
X0041439Y0065280D02*
X0031478Y0065280D01*
X0031463Y0065271D02*
X0041439Y0065271D01*
X0041439Y0065263D02*
X0031449Y0065263D01*
X0031434Y0065254D02*
X0041439Y0065254D01*
X0041439Y0065246D02*
X0031419Y0065246D01*
X0031405Y0065237D02*
X0041439Y0065237D01*
X0041439Y0065229D02*
X0031390Y0065229D01*
X0031376Y0065220D02*
X0041439Y0065220D01*
X0041439Y0065212D02*
X0031361Y0065212D01*
X0031346Y0065203D02*
X0041439Y0065203D01*
X0041439Y0065195D02*
X0031332Y0065195D01*
X0031317Y0065186D02*
X0041439Y0065186D01*
X0041439Y0065178D02*
X0031302Y0065178D01*
X0031258Y0065152D02*
X0041439Y0065152D01*
X0041439Y0065144D02*
X0031244Y0065144D01*
X0031229Y0065135D02*
X0041439Y0065135D01*
X0041439Y0065127D02*
X0031214Y0065127D01*
X0031200Y0065118D02*
X0041439Y0065118D01*
X0041439Y0065110D02*
X0031185Y0065110D01*
X0031170Y0065101D02*
X0041439Y0065101D01*
X0041439Y0065093D02*
X0031156Y0065093D01*
X0031141Y0065084D02*
X0041439Y0065084D01*
X0041439Y0065076D02*
X0031126Y0065076D01*
X0031112Y0065067D02*
X0041439Y0065067D01*
X0041439Y0065059D02*
X0031097Y0065059D01*
X0031082Y0065050D02*
X0041439Y0065050D01*
X0041439Y0065042D02*
X0031068Y0065042D01*
X0031053Y0065033D02*
X0041439Y0065033D01*
X0041439Y0065025D02*
X0031038Y0065025D01*
X0031024Y0065016D02*
X0041439Y0065016D01*
X0041439Y0065008D02*
X0031009Y0065008D01*
X0030994Y0064999D02*
X0041439Y0064999D01*
X0041439Y0064991D02*
X0030980Y0064991D01*
X0030965Y0064982D02*
X0041439Y0064982D01*
X0041439Y0064973D02*
X0030950Y0064973D01*
X0030936Y0064965D02*
X0041439Y0064965D01*
X0041439Y0064956D02*
X0030921Y0064956D01*
X0030906Y0064948D02*
X0041439Y0064948D01*
X0041439Y0064939D02*
X0030892Y0064939D01*
X0030877Y0064931D02*
X0041439Y0064931D01*
X0041439Y0064922D02*
X0030862Y0064922D01*
X0030848Y0064914D02*
X0041439Y0064914D01*
X0041439Y0064905D02*
X0030833Y0064905D01*
X0030818Y0064897D02*
X0041439Y0064897D01*
X0041439Y0064888D02*
X0030803Y0064888D01*
X0030789Y0064880D02*
X0041439Y0064880D01*
X0041439Y0064871D02*
X0030774Y0064871D01*
X0030759Y0064863D02*
X0041439Y0064863D01*
X0041439Y0064854D02*
X0030745Y0064854D01*
X0030730Y0064846D02*
X0041439Y0064846D01*
X0041439Y0064837D02*
X0030715Y0064837D01*
X0030701Y0064829D02*
X0041439Y0064829D01*
X0041439Y0064820D02*
X0030686Y0064820D01*
X0030671Y0064812D02*
X0041439Y0064812D01*
X0041439Y0064803D02*
X0030657Y0064803D01*
X0030642Y0064795D02*
X0041439Y0064795D01*
X0041439Y0064786D02*
X0030627Y0064786D01*
X0030613Y0064778D02*
X0041439Y0064778D01*
X0041439Y0064769D02*
X0030598Y0064769D01*
X0030583Y0064761D02*
X0041439Y0064761D01*
X0041439Y0064752D02*
X0030569Y0064752D01*
X0030554Y0064744D02*
X0041439Y0064744D01*
X0041439Y0064735D02*
X0030539Y0064735D01*
X0030525Y0064727D02*
X0041439Y0064727D01*
X0041439Y0064718D02*
X0030510Y0064718D01*
X0030495Y0064710D02*
X0041439Y0064710D01*
X0041439Y0064701D02*
X0030481Y0064701D01*
X0030466Y0064693D02*
X0041439Y0064693D01*
X0041439Y0064684D02*
X0030451Y0064684D01*
X0030437Y0064675D02*
X0041439Y0064675D01*
X0041439Y0064667D02*
X0030422Y0064667D01*
X0030407Y0064658D02*
X0041439Y0064658D01*
X0041439Y0064650D02*
X0030393Y0064650D01*
X0030378Y0064641D02*
X0041439Y0064641D01*
X0041439Y0064633D02*
X0030363Y0064633D01*
X0030349Y0064624D02*
X0041439Y0064624D01*
X0041426Y0064616D02*
X0030334Y0064616D01*
X0030319Y0064607D02*
X0041411Y0064607D01*
X0041396Y0064599D02*
X0030305Y0064599D01*
X0030290Y0064590D02*
X0041381Y0064590D01*
X0041367Y0064582D02*
X0030275Y0064582D01*
X0030261Y0064573D02*
X0041352Y0064573D01*
X0041337Y0064565D02*
X0030246Y0064565D01*
X0030231Y0064556D02*
X0041323Y0064556D01*
X0041308Y0064548D02*
X0030217Y0064548D01*
X0030202Y0064539D02*
X0041293Y0064539D01*
X0041278Y0064531D02*
X0030187Y0064531D01*
X0030173Y0064522D02*
X0041264Y0064522D01*
X0041249Y0064514D02*
X0030158Y0064514D01*
X0030143Y0064505D02*
X0041234Y0064505D01*
X0041220Y0064497D02*
X0030129Y0064497D01*
X0030114Y0064488D02*
X0041205Y0064488D01*
X0041190Y0064480D02*
X0030099Y0064480D01*
X0030085Y0064471D02*
X0041175Y0064471D01*
X0041161Y0064463D02*
X0030070Y0064463D01*
X0030055Y0064454D02*
X0041146Y0064454D01*
X0041131Y0064446D02*
X0030041Y0064446D01*
X0030026Y0064437D02*
X0041116Y0064437D01*
X0041102Y0064429D02*
X0030011Y0064429D01*
X0029997Y0064420D02*
X0041087Y0064420D01*
X0041072Y0064412D02*
X0029982Y0064412D01*
X0029967Y0064403D02*
X0041058Y0064403D01*
X0041043Y0064395D02*
X0029953Y0064395D01*
X0029938Y0064386D02*
X0041028Y0064386D01*
X0041013Y0064378D02*
X0029923Y0064378D01*
X0029909Y0064369D02*
X0040999Y0064369D01*
X0040984Y0064360D02*
X0029894Y0064360D01*
X0029879Y0064352D02*
X0040969Y0064352D01*
X0040955Y0064343D02*
X0029865Y0064343D01*
X0029850Y0064335D02*
X0040940Y0064335D01*
X0040925Y0064326D02*
X0029835Y0064326D01*
X0029821Y0064318D02*
X0040910Y0064318D01*
X0040896Y0064309D02*
X0029806Y0064309D01*
X0029791Y0064301D02*
X0040881Y0064301D01*
X0040866Y0064292D02*
X0029777Y0064292D01*
X0029762Y0064284D02*
X0040851Y0064284D01*
X0040837Y0064275D02*
X0029747Y0064275D01*
X0029733Y0064267D02*
X0040822Y0064267D01*
X0040807Y0064258D02*
X0029718Y0064258D01*
X0029703Y0064250D02*
X0040792Y0064250D01*
X0040778Y0064241D02*
X0029689Y0064241D01*
X0029674Y0064233D02*
X0040763Y0064233D01*
X0040748Y0064224D02*
X0029659Y0064224D01*
X0029645Y0064216D02*
X0040733Y0064216D01*
X0040719Y0064207D02*
X0029630Y0064207D01*
X0029615Y0064199D02*
X0040704Y0064199D01*
X0040689Y0064190D02*
X0029601Y0064190D01*
X0029586Y0064182D02*
X0040674Y0064182D01*
X0040660Y0064173D02*
X0029571Y0064173D01*
X0029557Y0064165D02*
X0040645Y0064165D01*
X0040630Y0064156D02*
X0029542Y0064156D01*
X0029527Y0064148D02*
X0040616Y0064148D01*
X0040601Y0064139D02*
X0029513Y0064139D01*
X0029498Y0064131D02*
X0040586Y0064131D01*
X0040571Y0064122D02*
X0029483Y0064122D01*
X0029468Y0064114D02*
X0040557Y0064114D01*
X0040542Y0064105D02*
X0029454Y0064105D01*
X0029439Y0064097D02*
X0040527Y0064097D01*
X0040512Y0064088D02*
X0029424Y0064088D01*
X0029410Y0064080D02*
X0040498Y0064080D01*
X0040483Y0064071D02*
X0029395Y0064071D01*
X0029380Y0064062D02*
X0040468Y0064062D01*
X0040453Y0064054D02*
X0029366Y0064054D01*
X0029351Y0064045D02*
X0040439Y0064045D01*
X0040424Y0064037D02*
X0029336Y0064037D01*
X0029322Y0064028D02*
X0040409Y0064028D01*
X0040395Y0064020D02*
X0029307Y0064020D01*
X0029292Y0064011D02*
X0040380Y0064011D01*
X0040365Y0064003D02*
X0029278Y0064003D01*
X0029263Y0063994D02*
X0040350Y0063994D01*
X0040336Y0063986D02*
X0029248Y0063986D01*
X0029234Y0063977D02*
X0040321Y0063977D01*
X0040306Y0063969D02*
X0029219Y0063969D01*
X0029204Y0063960D02*
X0040292Y0063960D01*
X0040277Y0063952D02*
X0029189Y0063952D01*
X0029175Y0063943D02*
X0040262Y0063943D01*
X0040248Y0063935D02*
X0029160Y0063935D01*
X0029145Y0063926D02*
X0040233Y0063926D01*
X0040218Y0063918D02*
X0029131Y0063918D01*
X0029116Y0063909D02*
X0040204Y0063909D01*
X0040189Y0063901D02*
X0029101Y0063901D01*
X0029087Y0063892D02*
X0040174Y0063892D01*
X0040159Y0063884D02*
X0029072Y0063884D01*
X0029057Y0063875D02*
X0040145Y0063875D01*
X0040130Y0063867D02*
X0029043Y0063867D01*
X0029028Y0063858D02*
X0040115Y0063858D01*
X0040101Y0063850D02*
X0029013Y0063850D01*
X0028999Y0063841D02*
X0040086Y0063841D01*
X0040071Y0063833D02*
X0028984Y0063833D01*
X0028969Y0063824D02*
X0040057Y0063824D01*
X0040042Y0063816D02*
X0028955Y0063816D01*
X0028940Y0063807D02*
X0040027Y0063807D01*
X0040013Y0063799D02*
X0028925Y0063799D01*
X0028911Y0063790D02*
X0039998Y0063790D01*
X0039983Y0063782D02*
X0028896Y0063782D01*
X0028881Y0063773D02*
X0039968Y0063773D01*
X0039954Y0063765D02*
X0028867Y0063765D01*
X0028852Y0063756D02*
X0039939Y0063756D01*
X0039924Y0063747D02*
X0028837Y0063747D01*
X0028823Y0063739D02*
X0039910Y0063739D01*
X0039895Y0063730D02*
X0028808Y0063730D01*
X0028793Y0063722D02*
X0039880Y0063722D01*
X0039866Y0063713D02*
X0028779Y0063713D01*
X0028764Y0063705D02*
X0039851Y0063705D01*
X0039836Y0063696D02*
X0028749Y0063696D01*
X0028735Y0063688D02*
X0039821Y0063688D01*
X0039807Y0063679D02*
X0028720Y0063679D01*
X0028705Y0063671D02*
X0039792Y0063671D01*
X0039777Y0063662D02*
X0028691Y0063662D01*
X0028676Y0063654D02*
X0039762Y0063654D01*
X0039748Y0063645D02*
X0028661Y0063645D01*
X0028647Y0063637D02*
X0039733Y0063637D01*
X0039718Y0063628D02*
X0028632Y0063628D01*
X0028617Y0063620D02*
X0039704Y0063620D01*
X0039689Y0063611D02*
X0028603Y0063611D01*
X0028588Y0063603D02*
X0039674Y0063603D01*
X0039659Y0063594D02*
X0028573Y0063594D01*
X0028559Y0063586D02*
X0039645Y0063586D01*
X0039630Y0063577D02*
X0028544Y0063577D01*
X0028529Y0063569D02*
X0039615Y0063569D01*
X0039601Y0063560D02*
X0028515Y0063560D01*
X0028500Y0063552D02*
X0039586Y0063552D01*
X0039571Y0063543D02*
X0028485Y0063543D01*
X0028471Y0063535D02*
X0039556Y0063535D01*
X0039542Y0063526D02*
X0028456Y0063526D01*
X0028441Y0063518D02*
X0039527Y0063518D01*
X0039512Y0063509D02*
X0028427Y0063509D01*
X0028412Y0063501D02*
X0039497Y0063501D01*
X0039483Y0063492D02*
X0028397Y0063492D01*
X0028383Y0063484D02*
X0039468Y0063484D01*
X0039453Y0063475D02*
X0028368Y0063475D01*
X0028353Y0063467D02*
X0039439Y0063467D01*
X0039424Y0063458D02*
X0028339Y0063458D01*
X0028324Y0063450D02*
X0039409Y0063450D01*
X0039394Y0063441D02*
X0028309Y0063441D01*
X0028295Y0063432D02*
X0039380Y0063432D01*
X0039365Y0063424D02*
X0028280Y0063424D01*
X0028265Y0063415D02*
X0039350Y0063415D01*
X0039336Y0063407D02*
X0028251Y0063407D01*
X0028236Y0063398D02*
X0039321Y0063398D01*
X0039306Y0063390D02*
X0028221Y0063390D01*
X0028207Y0063381D02*
X0039291Y0063381D01*
X0039277Y0063373D02*
X0028192Y0063373D01*
X0028177Y0063364D02*
X0039262Y0063364D01*
X0039247Y0063356D02*
X0028163Y0063356D01*
X0028148Y0063347D02*
X0039233Y0063347D01*
X0039218Y0063339D02*
X0028133Y0063339D01*
X0028119Y0063330D02*
X0039203Y0063330D01*
X0039189Y0063322D02*
X0028104Y0063322D01*
X0028089Y0063313D02*
X0039174Y0063313D01*
X0039159Y0063305D02*
X0028075Y0063305D01*
X0028060Y0063296D02*
X0039144Y0063296D01*
X0039130Y0063288D02*
X0028045Y0063288D01*
X0028031Y0063279D02*
X0039115Y0063279D01*
X0039100Y0063271D02*
X0028016Y0063271D01*
X0028001Y0063262D02*
X0039086Y0063262D01*
X0039071Y0063254D02*
X0027987Y0063254D01*
X0027972Y0063245D02*
X0039056Y0063245D01*
X0039041Y0063237D02*
X0027957Y0063237D01*
X0027943Y0063228D02*
X0039027Y0063228D01*
X0039012Y0063220D02*
X0027928Y0063220D01*
X0027913Y0063211D02*
X0038997Y0063211D01*
X0038983Y0063203D02*
X0027899Y0063203D01*
X0027884Y0063194D02*
X0038968Y0063194D01*
X0038953Y0063186D02*
X0027869Y0063186D01*
X0027855Y0063177D02*
X0038938Y0063177D01*
X0038924Y0063169D02*
X0027840Y0063169D01*
X0027825Y0063160D02*
X0038909Y0063160D01*
X0038894Y0063152D02*
X0027811Y0063152D01*
X0027796Y0063143D02*
X0038880Y0063143D01*
X0038865Y0063134D02*
X0027781Y0063134D01*
X0027767Y0063126D02*
X0038850Y0063126D01*
X0038835Y0063117D02*
X0027752Y0063117D01*
X0027737Y0063109D02*
X0038821Y0063109D01*
X0038806Y0063100D02*
X0027723Y0063100D01*
X0027708Y0063092D02*
X0038791Y0063092D01*
X0038777Y0063083D02*
X0027693Y0063083D01*
X0027679Y0063075D02*
X0038762Y0063075D01*
X0038747Y0063066D02*
X0027664Y0063066D01*
X0027649Y0063058D02*
X0038732Y0063058D01*
X0038718Y0063049D02*
X0027635Y0063049D01*
X0027620Y0063041D02*
X0038703Y0063041D01*
X0038688Y0063032D02*
X0027605Y0063032D01*
X0027591Y0063024D02*
X0038673Y0063024D01*
X0038659Y0063015D02*
X0027576Y0063015D01*
X0027561Y0063007D02*
X0038644Y0063007D01*
X0038629Y0062998D02*
X0027547Y0062998D01*
X0027532Y0062990D02*
X0038615Y0062990D01*
X0038600Y0062981D02*
X0027517Y0062981D01*
X0027503Y0062973D02*
X0038585Y0062973D01*
X0038570Y0062964D02*
X0027488Y0062964D01*
X0027473Y0062956D02*
X0038556Y0062956D01*
X0038541Y0062947D02*
X0027459Y0062947D01*
X0027444Y0062939D02*
X0038526Y0062939D01*
X0038512Y0062930D02*
X0027429Y0062930D01*
X0027415Y0062922D02*
X0038497Y0062922D01*
X0038482Y0062913D02*
X0027400Y0062913D01*
X0027385Y0062905D02*
X0038467Y0062905D01*
X0038453Y0062896D02*
X0027371Y0062896D01*
X0027356Y0062888D02*
X0038438Y0062888D01*
X0038423Y0062879D02*
X0027341Y0062879D01*
X0027327Y0062871D02*
X0038408Y0062871D01*
X0038394Y0062862D02*
X0027312Y0062862D01*
X0027297Y0062854D02*
X0038379Y0062854D01*
X0038364Y0062845D02*
X0027283Y0062845D01*
X0027268Y0062837D02*
X0038350Y0062837D01*
X0038335Y0062828D02*
X0027253Y0062828D01*
X0027239Y0062819D02*
X0038320Y0062819D01*
X0038305Y0062811D02*
X0027224Y0062811D01*
X0027209Y0062802D02*
X0038291Y0062802D01*
X0038276Y0062794D02*
X0027195Y0062794D01*
X0027180Y0062785D02*
X0038261Y0062785D01*
X0038247Y0062777D02*
X0027165Y0062777D01*
X0027151Y0062768D02*
X0038232Y0062768D01*
X0038217Y0062760D02*
X0027136Y0062760D01*
X0027121Y0062751D02*
X0038202Y0062751D01*
X0038188Y0062743D02*
X0027107Y0062743D01*
X0027092Y0062734D02*
X0038173Y0062734D01*
X0038158Y0062726D02*
X0027077Y0062726D01*
X0027063Y0062717D02*
X0038144Y0062717D01*
X0038129Y0062709D02*
X0027048Y0062709D01*
X0027033Y0062700D02*
X0038114Y0062700D01*
X0038099Y0062692D02*
X0027019Y0062692D01*
X0027004Y0062683D02*
X0038085Y0062683D01*
X0038070Y0062675D02*
X0026989Y0062675D01*
X0026975Y0062666D02*
X0038055Y0062666D01*
X0038040Y0062658D02*
X0026960Y0062658D01*
X0026945Y0062649D02*
X0038026Y0062649D01*
X0038011Y0062641D02*
X0026930Y0062641D01*
X0026916Y0062632D02*
X0037996Y0062632D01*
X0037982Y0062624D02*
X0026901Y0062624D01*
X0026886Y0062615D02*
X0037967Y0062615D01*
X0037952Y0062607D02*
X0026872Y0062607D01*
X0026857Y0062598D02*
X0037937Y0062598D01*
X0037923Y0062590D02*
X0026842Y0062590D01*
X0026828Y0062581D02*
X0037908Y0062581D01*
X0037893Y0062573D02*
X0026813Y0062573D01*
X0026798Y0062564D02*
X0037879Y0062564D01*
X0037864Y0062556D02*
X0026784Y0062556D01*
X0026769Y0062547D02*
X0037849Y0062547D01*
X0037834Y0062539D02*
X0026754Y0062539D01*
X0026740Y0062530D02*
X0037820Y0062530D01*
X0037805Y0062522D02*
X0026725Y0062522D01*
X0026710Y0062513D02*
X0037790Y0062513D01*
X0037776Y0062504D02*
X0026696Y0062504D01*
X0026681Y0062496D02*
X0037761Y0062496D01*
X0037746Y0062487D02*
X0026666Y0062487D01*
X0026652Y0062479D02*
X0037731Y0062479D01*
X0037717Y0062470D02*
X0026637Y0062470D01*
X0026622Y0062462D02*
X0037702Y0062462D01*
X0037687Y0062453D02*
X0026608Y0062453D01*
X0026593Y0062445D02*
X0037673Y0062445D01*
X0037658Y0062436D02*
X0026578Y0062436D01*
X0026564Y0062428D02*
X0037643Y0062428D01*
X0037629Y0062419D02*
X0026549Y0062419D01*
X0026534Y0062411D02*
X0037614Y0062411D01*
X0037599Y0062402D02*
X0026520Y0062402D01*
X0026505Y0062394D02*
X0037584Y0062394D01*
X0037570Y0062385D02*
X0026490Y0062385D01*
X0026476Y0062377D02*
X0037555Y0062377D01*
X0037540Y0062368D02*
X0026461Y0062368D01*
X0026446Y0062360D02*
X0037526Y0062360D01*
X0037511Y0062351D02*
X0026432Y0062351D01*
X0026417Y0062343D02*
X0037496Y0062343D01*
X0037481Y0062334D02*
X0026402Y0062334D01*
X0026388Y0062326D02*
X0037467Y0062326D01*
X0037452Y0062317D02*
X0026373Y0062317D01*
X0026358Y0062309D02*
X0037437Y0062309D01*
X0037423Y0062300D02*
X0026344Y0062300D01*
X0026329Y0062292D02*
X0037408Y0062292D01*
X0037393Y0062283D02*
X0026314Y0062283D01*
X0026300Y0062275D02*
X0037378Y0062275D01*
X0037364Y0062266D02*
X0026285Y0062266D01*
X0026270Y0062258D02*
X0037349Y0062258D01*
X0037334Y0062249D02*
X0026256Y0062249D01*
X0026241Y0062241D02*
X0037319Y0062241D01*
X0037305Y0062232D02*
X0026226Y0062232D01*
X0026212Y0062224D02*
X0037290Y0062224D01*
X0037275Y0062215D02*
X0026197Y0062215D01*
X0026182Y0062206D02*
X0037261Y0062206D01*
X0037246Y0062198D02*
X0026174Y0062198D01*
X0026174Y0062189D02*
X0037231Y0062189D01*
X0037216Y0062181D02*
X0026174Y0062181D01*
X0026174Y0062172D02*
X0037202Y0062172D01*
X0037187Y0062164D02*
X0026174Y0062164D01*
X0026174Y0062155D02*
X0037172Y0062155D01*
X0037157Y0062147D02*
X0026174Y0062147D01*
X0026174Y0062138D02*
X0037143Y0062138D01*
X0037128Y0062130D02*
X0026174Y0062130D01*
X0026174Y0062121D02*
X0037113Y0062121D01*
X0037098Y0062113D02*
X0026174Y0062113D01*
X0026174Y0062104D02*
X0037084Y0062104D01*
X0037069Y0062096D02*
X0026174Y0062096D01*
X0026174Y0062087D02*
X0037054Y0062087D01*
X0037039Y0062079D02*
X0026174Y0062079D01*
X0026174Y0062070D02*
X0037025Y0062070D01*
X0037010Y0062062D02*
X0026174Y0062062D01*
X0026174Y0062053D02*
X0036995Y0062053D01*
X0036980Y0062045D02*
X0026174Y0062045D01*
X0026174Y0062036D02*
X0036966Y0062036D01*
X0036951Y0062028D02*
X0026174Y0062028D01*
X0026174Y0062019D02*
X0036936Y0062019D01*
X0036922Y0062011D02*
X0026174Y0062011D01*
X0029408Y0069699D02*
X0041442Y0069699D01*
X0041442Y0069707D02*
X0029388Y0069707D01*
X0029368Y0069716D02*
X0041442Y0069716D01*
X0041442Y0069724D02*
X0029348Y0069724D01*
X0029327Y0069733D02*
X0041442Y0069733D01*
X0041442Y0069741D02*
X0029307Y0069741D01*
X0029287Y0069750D02*
X0041442Y0069750D01*
X0041442Y0069758D02*
X0029267Y0069758D01*
X0029246Y0069767D02*
X0041442Y0069767D01*
X0041442Y0069775D02*
X0029226Y0069775D01*
X0029206Y0069784D02*
X0041442Y0069784D01*
X0041442Y0069792D02*
X0029186Y0069792D01*
X0029165Y0069801D02*
X0041442Y0069801D01*
X0041442Y0069809D02*
X0029145Y0069809D01*
X0029125Y0069818D02*
X0041442Y0069818D01*
X0041442Y0069826D02*
X0029105Y0069826D01*
X0029084Y0069835D02*
X0041442Y0069835D01*
X0041442Y0069843D02*
X0029064Y0069843D01*
X0029044Y0069852D02*
X0041442Y0069852D01*
X0041442Y0069860D02*
X0029024Y0069860D01*
X0029003Y0069869D02*
X0041442Y0069869D01*
X0041442Y0069877D02*
X0028983Y0069877D01*
X0028963Y0069886D02*
X0041442Y0069886D01*
X0041442Y0069894D02*
X0028942Y0069894D01*
X0028922Y0069903D02*
X0041442Y0069903D01*
X0041442Y0069911D02*
X0028902Y0069911D01*
X0028882Y0069920D02*
X0041442Y0069920D01*
X0041442Y0069928D02*
X0028861Y0069928D01*
X0028841Y0069937D02*
X0041442Y0069937D01*
X0041442Y0069946D02*
X0028821Y0069946D01*
X0028801Y0069954D02*
X0041442Y0069954D01*
X0041442Y0069963D02*
X0028780Y0069963D01*
X0028760Y0069971D02*
X0041442Y0069971D01*
X0041442Y0069980D02*
X0028740Y0069980D01*
X0028720Y0069988D02*
X0041442Y0069988D01*
X0041443Y0070524D01*
X0041443Y0071061D01*
X0039681Y0071061D01*
X0039094Y0071060D01*
X0036157Y0071060D01*
X0035570Y0071059D01*
X0032047Y0071059D01*
X0031459Y0071059D01*
X0028523Y0071059D01*
X0027936Y0071058D01*
X0027665Y0070431D02*
X0041443Y0070431D01*
X0041443Y0070439D02*
X0027644Y0070439D01*
X0027624Y0070448D02*
X0041443Y0070448D01*
X0041443Y0070456D02*
X0027604Y0070456D01*
X0027584Y0070465D02*
X0041443Y0070465D01*
X0041443Y0070473D02*
X0027563Y0070473D01*
X0027543Y0070482D02*
X0041443Y0070482D01*
X0041443Y0070490D02*
X0027523Y0070490D01*
X0027503Y0070499D02*
X0041443Y0070499D01*
X0041443Y0070507D02*
X0027482Y0070507D01*
X0027462Y0070516D02*
X0041443Y0070516D01*
X0041443Y0070524D02*
X0027442Y0070524D01*
X0027422Y0070533D02*
X0041443Y0070533D01*
X0041443Y0070541D02*
X0027401Y0070541D01*
X0027381Y0070550D02*
X0041443Y0070550D01*
X0041443Y0070559D02*
X0027361Y0070559D01*
X0027341Y0070567D02*
X0041443Y0070567D01*
X0041443Y0070576D02*
X0027320Y0070576D01*
X0027300Y0070584D02*
X0041443Y0070584D01*
X0041443Y0070593D02*
X0027280Y0070593D01*
X0027259Y0070601D02*
X0041443Y0070601D01*
X0041443Y0070610D02*
X0027239Y0070610D01*
X0027219Y0070618D02*
X0041443Y0070618D01*
X0041443Y0070627D02*
X0027199Y0070627D01*
X0027178Y0070635D02*
X0041443Y0070635D01*
X0041443Y0070644D02*
X0027158Y0070644D01*
X0027138Y0070652D02*
X0041443Y0070652D01*
X0041443Y0070661D02*
X0027118Y0070661D01*
X0027097Y0070669D02*
X0041443Y0070669D01*
X0041443Y0070678D02*
X0027077Y0070678D01*
X0027057Y0070686D02*
X0041443Y0070686D01*
X0041443Y0070695D02*
X0027037Y0070695D01*
X0027016Y0070703D02*
X0041443Y0070703D01*
X0041443Y0070712D02*
X0026996Y0070712D01*
X0026976Y0070720D02*
X0041443Y0070720D01*
X0041443Y0070729D02*
X0026956Y0070729D01*
X0026935Y0070737D02*
X0041443Y0070737D01*
X0041443Y0070746D02*
X0026915Y0070746D01*
X0026895Y0070754D02*
X0041443Y0070754D01*
X0041443Y0070763D02*
X0026874Y0070763D01*
X0026854Y0070771D02*
X0041443Y0070771D01*
X0041443Y0070780D02*
X0026834Y0070780D01*
X0026814Y0070788D02*
X0041443Y0070788D01*
X0041443Y0070797D02*
X0026793Y0070797D01*
X0026773Y0070805D02*
X0041443Y0070805D01*
X0041443Y0070814D02*
X0026753Y0070814D01*
X0026732Y0070822D02*
X0041443Y0070822D01*
X0041443Y0070831D02*
X0026712Y0070831D01*
X0026692Y0070839D02*
X0041443Y0070839D01*
X0041443Y0070848D02*
X0026672Y0070848D01*
X0026651Y0070856D02*
X0041443Y0070856D01*
X0041443Y0070865D02*
X0026631Y0070865D01*
X0026611Y0070874D02*
X0041443Y0070874D01*
X0041443Y0070882D02*
X0026591Y0070882D01*
X0026570Y0070891D02*
X0041443Y0070891D01*
X0041443Y0070899D02*
X0026550Y0070899D01*
X0026530Y0070908D02*
X0041443Y0070908D01*
X0041443Y0070916D02*
X0026510Y0070916D01*
X0026490Y0070925D02*
X0041443Y0070925D01*
X0041443Y0070933D02*
X0026470Y0070933D01*
X0026449Y0070942D02*
X0041443Y0070942D01*
X0041443Y0070950D02*
X0026429Y0070950D01*
X0026409Y0070959D02*
X0041443Y0070959D01*
X0041443Y0070967D02*
X0026389Y0070967D01*
X0026369Y0070976D02*
X0041443Y0070976D01*
X0041443Y0070984D02*
X0026349Y0070984D01*
X0026329Y0070993D02*
X0041443Y0070993D01*
X0041443Y0071001D02*
X0026309Y0071001D01*
X0026288Y0071010D02*
X0041443Y0071010D01*
X0041443Y0071018D02*
X0026268Y0071018D01*
X0026248Y0071027D02*
X0041443Y0071027D01*
X0041443Y0071035D02*
X0026228Y0071035D01*
X0026208Y0071044D02*
X0041443Y0071044D01*
X0041443Y0071052D02*
X0026188Y0071052D01*
X0027685Y0070422D02*
X0041443Y0070422D01*
X0041443Y0070414D02*
X0027705Y0070414D01*
X0027725Y0070405D02*
X0041443Y0070405D01*
X0041443Y0070397D02*
X0027746Y0070397D01*
X0027766Y0070388D02*
X0041443Y0070388D01*
X0041443Y0070380D02*
X0027786Y0070380D01*
X0027807Y0070371D02*
X0041443Y0070371D01*
X0041443Y0070363D02*
X0027827Y0070363D01*
X0027847Y0070354D02*
X0041443Y0070354D01*
X0041443Y0070346D02*
X0027867Y0070346D01*
X0027888Y0070337D02*
X0041443Y0070337D01*
X0041443Y0070329D02*
X0027908Y0070329D01*
X0027928Y0070320D02*
X0041443Y0070320D01*
X0041443Y0070312D02*
X0027948Y0070312D01*
X0027969Y0070303D02*
X0041443Y0070303D01*
X0041443Y0070295D02*
X0027989Y0070295D01*
X0028009Y0070286D02*
X0041443Y0070286D01*
X0041443Y0070278D02*
X0028030Y0070278D01*
X0028050Y0070269D02*
X0041443Y0070269D01*
X0041443Y0070261D02*
X0028070Y0070261D01*
X0028090Y0070252D02*
X0041443Y0070252D01*
X0041443Y0070244D02*
X0028111Y0070244D01*
X0028131Y0070235D02*
X0041443Y0070235D01*
X0041443Y0070226D02*
X0028151Y0070226D01*
X0028172Y0070218D02*
X0041443Y0070218D01*
X0041443Y0070209D02*
X0028192Y0070209D01*
X0028212Y0070201D02*
X0041443Y0070201D01*
X0041443Y0070192D02*
X0028232Y0070192D01*
X0028253Y0070184D02*
X0041443Y0070184D01*
X0041443Y0070175D02*
X0028273Y0070175D01*
X0028293Y0070167D02*
X0041443Y0070167D01*
X0041443Y0070158D02*
X0028314Y0070158D01*
X0028334Y0070150D02*
X0041443Y0070150D01*
X0041443Y0070141D02*
X0028354Y0070141D01*
X0028374Y0070133D02*
X0041443Y0070133D01*
X0041442Y0070124D02*
X0028395Y0070124D01*
X0028415Y0070116D02*
X0041442Y0070116D01*
X0041442Y0070107D02*
X0028435Y0070107D01*
X0028456Y0070099D02*
X0041442Y0070099D01*
X0041442Y0070090D02*
X0028476Y0070090D01*
X0028496Y0070082D02*
X0041442Y0070082D01*
X0041442Y0070073D02*
X0028517Y0070073D01*
X0028537Y0070065D02*
X0041442Y0070065D01*
X0041442Y0070056D02*
X0028557Y0070056D01*
X0028577Y0070048D02*
X0041442Y0070048D01*
X0041442Y0070039D02*
X0028598Y0070039D01*
X0028618Y0070031D02*
X0041442Y0070031D01*
X0041442Y0070022D02*
X0028638Y0070022D01*
X0028659Y0070014D02*
X0041442Y0070014D01*
X0041442Y0070005D02*
X0028679Y0070005D01*
X0028699Y0069997D02*
X0041442Y0069997D01*
X0041442Y0069988D02*
X0041442Y0069451D01*
X0041442Y0068915D01*
X0041442Y0068379D01*
X0041442Y0068388D02*
X0032530Y0068388D01*
X0032510Y0068396D02*
X0041442Y0068396D01*
X0041442Y0068405D02*
X0032489Y0068405D01*
X0032469Y0068413D02*
X0041442Y0068413D01*
X0041442Y0068422D02*
X0032449Y0068422D01*
X0032429Y0068430D02*
X0041442Y0068430D01*
X0041442Y0068439D02*
X0032409Y0068439D01*
X0032388Y0068447D02*
X0041442Y0068447D01*
X0041442Y0068456D02*
X0032368Y0068456D01*
X0032348Y0068464D02*
X0041442Y0068464D01*
X0041442Y0068473D02*
X0032328Y0068473D01*
X0032308Y0068481D02*
X0041442Y0068481D01*
X0041442Y0068490D02*
X0032287Y0068490D01*
X0032267Y0068498D02*
X0041442Y0068498D01*
X0041442Y0068507D02*
X0032247Y0068507D01*
X0032227Y0068515D02*
X0041442Y0068515D01*
X0041442Y0068524D02*
X0032207Y0068524D01*
X0032186Y0068532D02*
X0041442Y0068532D01*
X0041442Y0068541D02*
X0032166Y0068541D01*
X0032146Y0068549D02*
X0041442Y0068549D01*
X0041442Y0068558D02*
X0032126Y0068558D01*
X0032106Y0068566D02*
X0041442Y0068566D01*
X0041442Y0068575D02*
X0032085Y0068575D01*
X0032065Y0068583D02*
X0041442Y0068583D01*
X0041442Y0068592D02*
X0032045Y0068592D01*
X0032024Y0068600D02*
X0041442Y0068600D01*
X0041442Y0068609D02*
X0032004Y0068609D01*
X0031984Y0068617D02*
X0041442Y0068617D01*
X0041442Y0068626D02*
X0031964Y0068626D01*
X0031943Y0068634D02*
X0041442Y0068634D01*
X0041442Y0068643D02*
X0031923Y0068643D01*
X0031903Y0068651D02*
X0041442Y0068651D01*
X0041442Y0068660D02*
X0031883Y0068660D01*
X0031862Y0068668D02*
X0041442Y0068668D01*
X0041442Y0068677D02*
X0031842Y0068677D01*
X0031822Y0068685D02*
X0041442Y0068685D01*
X0041442Y0068694D02*
X0031802Y0068694D01*
X0031781Y0068703D02*
X0041442Y0068703D01*
X0041442Y0068711D02*
X0031761Y0068711D01*
X0031741Y0068720D02*
X0041442Y0068720D01*
X0041442Y0068728D02*
X0031720Y0068728D01*
X0031700Y0068737D02*
X0041442Y0068737D01*
X0041442Y0068745D02*
X0031680Y0068745D01*
X0031660Y0068754D02*
X0041442Y0068754D01*
X0041442Y0068762D02*
X0031639Y0068762D01*
X0031619Y0068771D02*
X0041442Y0068771D01*
X0041442Y0068779D02*
X0031599Y0068779D01*
X0031579Y0068788D02*
X0041442Y0068788D01*
X0041442Y0068796D02*
X0031558Y0068796D01*
X0031538Y0068805D02*
X0041442Y0068805D01*
X0041442Y0068813D02*
X0031518Y0068813D01*
X0031497Y0068822D02*
X0041442Y0068822D01*
X0041442Y0068830D02*
X0031477Y0068830D01*
X0031457Y0068839D02*
X0041442Y0068839D01*
X0041442Y0068847D02*
X0031437Y0068847D01*
X0031416Y0068856D02*
X0041442Y0068856D01*
X0041442Y0068864D02*
X0031396Y0068864D01*
X0031376Y0068873D02*
X0041442Y0068873D01*
X0041442Y0068881D02*
X0031355Y0068881D01*
X0031335Y0068890D02*
X0041442Y0068890D01*
X0041442Y0068898D02*
X0031315Y0068898D01*
X0031294Y0068907D02*
X0041442Y0068907D01*
X0041442Y0068915D02*
X0031274Y0068915D01*
X0031254Y0068924D02*
X0041442Y0068924D01*
X0041442Y0068932D02*
X0031234Y0068932D01*
X0031213Y0068941D02*
X0041442Y0068941D01*
X0041442Y0068949D02*
X0031193Y0068949D01*
X0031173Y0068958D02*
X0041442Y0068958D01*
X0041442Y0068966D02*
X0031152Y0068966D01*
X0031132Y0068975D02*
X0041442Y0068975D01*
X0041442Y0068983D02*
X0031112Y0068983D01*
X0031092Y0068992D02*
X0041442Y0068992D01*
X0041442Y0069000D02*
X0031071Y0069000D01*
X0031051Y0069009D02*
X0041442Y0069009D01*
X0041442Y0069018D02*
X0031031Y0069018D01*
X0031010Y0069026D02*
X0041442Y0069026D01*
X0041442Y0069035D02*
X0030990Y0069035D01*
X0030970Y0069043D02*
X0041442Y0069043D01*
X0041442Y0069052D02*
X0030950Y0069052D01*
X0030929Y0069060D02*
X0041442Y0069060D01*
X0041442Y0069069D02*
X0030909Y0069069D01*
X0030889Y0069077D02*
X0041442Y0069077D01*
X0041442Y0069086D02*
X0030868Y0069086D01*
X0030848Y0069094D02*
X0041442Y0069094D01*
X0041442Y0069103D02*
X0030828Y0069103D01*
X0030808Y0069111D02*
X0041442Y0069111D01*
X0041442Y0069120D02*
X0030787Y0069120D01*
X0030767Y0069128D02*
X0041442Y0069128D01*
X0041442Y0069137D02*
X0030747Y0069137D01*
X0030726Y0069145D02*
X0041442Y0069145D01*
X0041442Y0069154D02*
X0030706Y0069154D01*
X0030686Y0069162D02*
X0041442Y0069162D01*
X0041442Y0069171D02*
X0030666Y0069171D01*
X0030645Y0069179D02*
X0041442Y0069179D01*
X0041442Y0069188D02*
X0030625Y0069188D01*
X0030605Y0069196D02*
X0041442Y0069196D01*
X0041442Y0069205D02*
X0030585Y0069205D01*
X0030564Y0069213D02*
X0041442Y0069213D01*
X0041442Y0069222D02*
X0030544Y0069222D01*
X0030524Y0069230D02*
X0041442Y0069230D01*
X0041442Y0069239D02*
X0030503Y0069239D01*
X0030483Y0069247D02*
X0041442Y0069247D01*
X0041442Y0069256D02*
X0030463Y0069256D01*
X0030443Y0069264D02*
X0041442Y0069264D01*
X0041442Y0069273D02*
X0030422Y0069273D01*
X0030402Y0069281D02*
X0041442Y0069281D01*
X0041442Y0069290D02*
X0030382Y0069290D01*
X0030361Y0069298D02*
X0041442Y0069298D01*
X0041442Y0069307D02*
X0030341Y0069307D01*
X0030321Y0069316D02*
X0041442Y0069316D01*
X0041442Y0069324D02*
X0030301Y0069324D01*
X0030280Y0069333D02*
X0041442Y0069333D01*
X0041442Y0069341D02*
X0030260Y0069341D01*
X0030240Y0069350D02*
X0041442Y0069350D01*
X0041442Y0069358D02*
X0030220Y0069358D01*
X0030199Y0069367D02*
X0041442Y0069367D01*
X0041442Y0069375D02*
X0030179Y0069375D01*
X0030159Y0069384D02*
X0041442Y0069384D01*
X0041442Y0069392D02*
X0030138Y0069392D01*
X0030118Y0069401D02*
X0041442Y0069401D01*
X0041442Y0069409D02*
X0030098Y0069409D01*
X0030078Y0069418D02*
X0041442Y0069418D01*
X0041442Y0069426D02*
X0030057Y0069426D01*
X0030037Y0069435D02*
X0041442Y0069435D01*
X0041442Y0069443D02*
X0030017Y0069443D01*
X0029997Y0069452D02*
X0041442Y0069452D01*
X0041442Y0069460D02*
X0029976Y0069460D01*
X0029956Y0069469D02*
X0041442Y0069469D01*
X0041442Y0069477D02*
X0029936Y0069477D01*
X0029915Y0069486D02*
X0041442Y0069486D01*
X0041442Y0069494D02*
X0029895Y0069494D01*
X0029875Y0069503D02*
X0041442Y0069503D01*
X0041442Y0069511D02*
X0029855Y0069511D01*
X0029834Y0069520D02*
X0041442Y0069520D01*
X0041442Y0069528D02*
X0029814Y0069528D01*
X0029794Y0069537D02*
X0041442Y0069537D01*
X0041442Y0069545D02*
X0029773Y0069545D01*
X0029753Y0069554D02*
X0041442Y0069554D01*
X0041442Y0069562D02*
X0029733Y0069562D01*
X0029713Y0069571D02*
X0041442Y0069571D01*
X0041442Y0069579D02*
X0029692Y0069579D01*
X0029672Y0069588D02*
X0041442Y0069588D01*
X0041442Y0069596D02*
X0029652Y0069596D01*
X0029632Y0069605D02*
X0041442Y0069605D01*
X0041442Y0069613D02*
X0029611Y0069613D01*
X0029591Y0069622D02*
X0041442Y0069622D01*
X0041442Y0069631D02*
X0029571Y0069631D01*
X0029550Y0069639D02*
X0041442Y0069639D01*
X0041442Y0069648D02*
X0029530Y0069648D01*
X0029510Y0069656D02*
X0041442Y0069656D01*
X0041442Y0069665D02*
X0029490Y0069665D01*
X0029469Y0069673D02*
X0041442Y0069673D01*
X0041442Y0069682D02*
X0029449Y0069682D01*
X0029429Y0069690D02*
X0041442Y0069690D01*
X0041441Y0067842D02*
X0041441Y0067306D01*
M02*
